<svg width="68" height="68" viewBox="0 0 68 68" fill="none" xmlns="http://www.w3.org/2000/svg">
<circle cx="34" cy="34" r="34" transform="matrix(-1 0 0 1 68 0)" fill="#307FE2"/>
<path d="M42.6319 33.5488C43.0224 33.9393 43.0224 34.5724 42.6319 34.963L36.268 41.3269C35.8774 41.7175 35.2443 41.7175 34.8537 41.3269C34.4632 40.9364 34.4632 40.3032 34.8537 39.9127L40.5106 34.2559L34.8537 28.599C34.4632 28.2085 34.4632 27.5753 34.8537 27.1848C35.2443 26.7943 35.8774 26.7943 36.2679 27.1848L42.6319 33.5488ZM25.5639 33.2559L41.9248 33.2559L41.9248 35.2559L25.5639 35.2559L25.5639 33.2559Z" fill="white"/>
</svg>
