<?xml version="1.0" standalone="no"?>
<!DOCTYPE svg PUBLIC "-//W3C//DTD SVG 1.0//EN" "http://www.w3.org/TR/2001/REC-SVG-20010904/DTD/svg10.dtd">
<svg xmlns="http://www.w3.org/2000/svg" xmlns:xlink="http://www.w3.org/1999/xlink" id="body_8" width="1903" height="1132">

<defs>
    <clipPath  id="1">

    <path id=""  clip-rule="evenodd" transform="matrix(1 0 0 1 0 0)"  d="M0 849L0 0L0 0L1427.25 0L1427.25 0L1427.25 849L1427.25 849L0 849z" />    </clipPath>
</defs>

<g transform="matrix(1.3333 0 0 1.3333 0 0)">
	<g clip-path="url(#1)" >
    <path id=""  transform="matrix(1 0 0 -1 0 849)"  d="M96 849L96 849L96 849L449.25 849L449.25 849L449.25 476.25L449.25 476.25L96 476.25z" stroke="#FFFFFF" stroke-width="0.75" fill="none" stroke-opacity="0" />
    <path id=""  transform="matrix(1 0 0 -1 0 849)"  d="M873 752.25L873 752.25L873 752.25L1226.25 752.25L1226.25 752.25L1226.25 379.5L1226.25 379.5L873 379.5z" stroke="#FFFFFF" stroke-width="0.75" fill="none" stroke-opacity="0" />
    <path id=""  transform="matrix(1 0 0 -1 0 849)"  d="M1068.75 381L1068.75 381L1068.75 381L1317.75 381L1317.75 381L1317.75 0L1317.75 0L1068.75 0z" stroke="#FFFFFF" stroke-width="0.75" fill="none" stroke-opacity="0" />
    <path id=""  transform="matrix(1 0 0 -1 0 849)"  d="M117 230.25L117 230.25L117 230.25L304.5 230.25L304.5 230.25L304.5 151.5L304.5 151.5L117 151.5z" stroke="#FFFFFF" stroke-width="0.75" fill="none" stroke-opacity="0" />
    <path id=""  transform="matrix(1 0 0 -1 0 849)"  d="M1264.1401 546L1264.1401 546L1264.1401 546L1428.0891 485.51636L1428.0891 485.51636L1336.1956 236.42639L1336.1956 236.42639L1172.2463 296.91003z" stroke="#FFFFFF" stroke-width="0.75" fill="none" stroke-opacity="0" />
    <path id=""  transform="matrix(1 0 0 -1 0 849)"  d="M508.5 686.25L508.5 686.25L508.5 686.25L819.75 686.25L819.75 686.25L819.75 444.75L819.75 444.75L508.5 444.75z" stroke="#FFFFFF" stroke-width="0.75" fill="none" stroke-opacity="0" />
    <path id=""  transform="matrix(1 0 0 -1 0 849)"  d="M0 516.75L0 516.75L0 516.75L234 516.75L234 516.75L234 379.5L234 379.5L0 379.5z" stroke="#FFFFFF" stroke-width="0.75" fill="none" stroke-opacity="0" />
	</g>
</g>
</svg>