<?xml version="1.0" standalone="no"?>
<!DOCTYPE svg PUBLIC "-//W3C//DTD SVG 1.0//EN" "http://www.w3.org/TR/2001/REC-SVG-20010904/DTD/svg10.dtd">
<svg xmlns="http://www.w3.org/2000/svg" xmlns:xlink="http://www.w3.org/1999/xlink" id="body_1" width="1920" height="19512">

<g transform="matrix(1 0 0 1 0 0)">
    <path d="M0 3041L1920 3041L1920 4320L0 4320z" stroke="none" fill="none" />
	<g>
        <path d="M0 3041L1920 3041L1920 4320L0 4320z" stroke="none" fill="none" />
	</g>
    <path d="M0 8299L1920 8299L1920 9578L0 9578z" stroke="none" fill="none" />
	<g>
        <path d="M0 8299L1920 8299L1920 9578L0 9578z" stroke="none" fill="none" />
	</g>
    <path d="M0 13840L1920 13840L1920 15119L0 15119z" stroke="none" fill="none" />
	<g>
        <path d="M0 13840L1920 13840L1920 15119L0 15119z" stroke="none" fill="none" />
	</g>
    <path d="M0 18233L1920 18233L1920 19512L0 19512z" stroke="none" fill="none" />
	<g>
        <path d="M0 18233L1920 18233L1920 19512L0 19512z" stroke="none" fill="none" />
	</g>
    <path transform="matrix(-1 -0 0 1 1920 15522)"  d="M0 0L1920 0L1920 1279L0 1279z" stroke="none" fill="none" />
	<g>
        <path transform="matrix(-1 -0 0 1 1920 15522)"  d="M0 0L1920 0L1920 1279L0 1279z" stroke="none" fill="none" />
	</g>
    <path transform="matrix(-1 -0 0 1 1920 4739)"  d="M0 0L1920 0L1920 1279L0 1279z" stroke="none" fill="none" />
	<g>
        <path transform="matrix(-1 -0 0 1 1920 4739)"  d="M0 0L1920 0L1920 1279L0 1279z" stroke="none" fill="none" />
	</g>
    <path transform="matrix(-1 -0 0 1 1920 0)"  d="M0 0L1920 0L1920 1279L0 1279z" stroke="none" fill="none" />
	<g>
        <path transform="matrix(-1 -0 0 1 1920 0)"  d="M0 0L1920 0L1920 1279L0 1279z" stroke="none" fill="none" />
	</g>
	<g>
        <path transform="matrix(0.9837715 0.17942551 -0.17942551 0.9837715 896.9926 132.63281)"  d="M-284.715 5025L472.48898 5025L472.48898 6096.67L-284.715 6096.67z" stroke="none" fill="none" />
	</g>
    <path d="M127.5 5293.5L-17 5265.5L-20 5284L125 5307.5L127.5 5293.5z" stroke="none" fill="#FFFFFF" fill-rule="nonzero" />
</g>
</svg>