<?xml version="1.0" standalone="no"?>
<!DOCTYPE svg PUBLIC "-//W3C//DTD SVG 1.0//EN" "http://www.w3.org/TR/2001/REC-SVG-20010904/DTD/svg10.dtd">
<svg xmlns="http://www.w3.org/2000/svg" xmlns:xlink="http://www.w3.org/1999/xlink" id="body_7" width="1903" height="2009">

<defs>
    <clipPath  id="1">

    <path id=""  clip-rule="evenodd" transform="matrix(1 0 0 1 0 0)"  d="M0 1507L0 -0.5L0 -0.5L1427.25 -0.5L1427.25 -0.5L1427.25 1507L1427.25 1507L0 1507z" />    </clipPath>
</defs>

<g transform="matrix(1.3333 0 0 1.3333 0 0)">
	<g clip-path="url(#1)" >
    <path id=""  transform="matrix(1 0 0 -1 0 1507)"  d="M323.25 266.25L323.25 266.25L323.25 266.25L1091.25 266.25L1091.25 266.25L1091.25 0L1091.25 0L323.25 0z" stroke="#FFFFFF" stroke-width="0.75" fill="none" stroke-opacity="0" />
    <path id=""  transform="matrix(1 0 0 -1 0 1507)"  d="M101.43445 465L101.43445 465L101.43445 465L199.64435 396.0448L199.64435 396.0448L108.709656 266.53052L108.709656 266.53052L10.499756 335.48572z" stroke="#FFFFFF" stroke-width="0.75" fill="none" stroke-opacity="0" />
    <path id=""  transform="matrix(1 0 0 -1 0 1507)"  d="M1141.5001 219.01508L1141.5001 219.01508L1141.5001 219.01508L1316.8905 300.74915L1316.8905 300.74915L1418.8995 81.851074L1418.8995 81.851074L1243.5092 0.117004395z" stroke="#FFFFFF" stroke-width="0.75" fill="none" stroke-opacity="0" />
    <path id=""  transform="matrix(1 0 0 -1 0 1507)"  d="M96 1507.5L96 1507.5L96 1507.5L449.25 1507.5L449.25 1507.5L449.25 1134.75L449.25 1134.75L96 1134.75z" stroke="#FFFFFF" stroke-width="0.75" fill="none" stroke-opacity="0" />
    <path id=""  transform="matrix(1 0 0 -1 0 1507)"  d="M873 1410.75L873 1410.75L873 1410.75L1226.25 1410.75L1226.25 1410.75L1226.25 1038L1226.25 1038L873 1038z" stroke="#FFFFFF" stroke-width="0.75" fill="none" stroke-opacity="0" />
    <path id=""  transform="matrix(1 0 0 -1 0 1507)"  d="M1068.75 1039.5L1068.75 1039.5L1068.75 1039.5L1317.75 1039.5L1317.75 1039.5L1317.75 658.5L1317.75 658.5L1068.75 658.5z" stroke="#FFFFFF" stroke-width="0.75" fill="none" stroke-opacity="0" />
    <path id=""  transform="matrix(1 0 0 -1 0 1507)"  d="M117 888.75L117 888.75L117 888.75L304.5 888.75L304.5 888.75L304.5 810L304.5 810L117 810z" stroke="#FFFFFF" stroke-width="0.75" fill="none" stroke-opacity="0" />
    <path id=""  transform="matrix(1 0 0 -1 0 1507)"  d="M1264.1401 1204.5L1264.1401 1204.5L1264.1401 1204.5L1428.0891 1144.0164L1428.0891 1144.0164L1336.1956 894.9264L1336.1956 894.9264L1172.2463 955.41003z" stroke="#FFFFFF" stroke-width="0.75" fill="none" stroke-opacity="0" />
    <path id=""  transform="matrix(1 0 0 -1 0 1507)"  d="M508.5 1344.75L508.5 1344.75L508.5 1344.75L819.75 1344.75L819.75 1344.75L819.75 1103.25L819.75 1103.25L508.5 1103.25z" stroke="#FFFFFF" stroke-width="0.75" fill="none" stroke-opacity="0" />
    <path id=""  transform="matrix(1 0 0 -1 0 1507)"  d="M0 1175.25L0 1175.25L0 1175.25L234 1175.25L234 1175.25L234 1038L234 1038L0 1038z" stroke="#FFFFFF" stroke-width="0.75" fill="none" stroke-opacity="0" />
	</g>
</g>
</svg>