<?xml version="1.0" standalone="no"?>
<!DOCTYPE svg PUBLIC "-//W3C//DTD SVG 1.0//EN" "http://www.w3.org/TR/2001/REC-SVG-20010904/DTD/svg10.dtd">
<svg xmlns="http://www.w3.org/2000/svg" xmlns:xlink="http://www.w3.org/1999/xlink" id="body_9" width="1877" height="620">

<defs>
    <clipPath  id="1">

    <path id=""  clip-rule="evenodd" transform="matrix(1 0 0 1 0 0)"  d="M0 465L0 0L0 0L1408.5 0L1408.5 0L1408.5 465L1408.5 465L0 465z" />    </clipPath>
</defs>

<g transform="matrix(1.3333 0 0 1.3333 0 0)">
	<g clip-path="url(#1)" >
    <path id=""  transform="matrix(1 0 0 -1 0 465)"  d="M312.75 266.25L312.75 266.25L312.75 266.25L1080.75 266.25L1080.75 266.25L1080.75 0L1080.75 0L312.75 0z" stroke="#FFFFFF" stroke-width="0.75" fill="none" stroke-opacity="0" />
    <path id=""  transform="matrix(1 0 0 -1 0 465)"  d="M90.9345 465L90.9345 465L90.9345 465L189.14438 396.0448L189.14438 396.0448L98.209694 266.53052L98.209694 266.53052L-0.00019073486 335.48575z" stroke="#FFFFFF" stroke-width="0.75" fill="none" stroke-opacity="0" />
    <path id=""  transform="matrix(1 0 0 -1 0 465)"  d="M1131 219.01573L1131 219.01573L1131 219.01573L1306.3904 300.74982L1306.3904 300.74982L1408.3997 81.851715L1408.3997 81.851715L1233.0093 0.11764526z" stroke="#FFFFFF" stroke-width="0.75" fill="none" stroke-opacity="0" />
	</g>
</g>
</svg>