<?xml version="1.0" standalone="no"?>
<!DOCTYPE svg PUBLIC "-//W3C//DTD SVG 1.0//EN" "http://www.w3.org/TR/2001/REC-SVG-20010904/DTD/svg10.dtd">
<svg xmlns="http://www.w3.org/2000/svg" xmlns:xlink="http://www.w3.org/1999/xlink" id="body_10" width="1920" height="19512">

<defs>
    <clipPath  id="1">

    <path id=""  clip-rule="evenodd" transform="matrix(1 0 0 1 0 0)"  d="M0 14634L0 0L0 0L1440 0L1440 0L1440 14634L1440 14634L0 14634z" />    </clipPath>
</defs>

<g transform="matrix(1.3333 0 0 1.3333 0 0)">
	<g clip-path="url(#1)" >
    <path id=""  transform="matrix(1 0 0 -1 0 14634)"  d="M0 12353.25L0 12353.25L0 12353.25L1440 12353.25L1440 12353.25L1440 11394L1440 11394L0 11394z" stroke="#FFFFFF" stroke-width="0.75" fill="none" stroke-opacity="0" />
    <path id=""  transform="matrix(1 0 0 -1 0 14634)"  d="M0 12353.25L0 12353.25L0 12353.25L1440 12353.25L1440 12353.25L1440 11394L1440 11394L0 11394z" stroke="#FFFFFF" stroke-width="0.75" fill="none" stroke-opacity="0" />
    <path id=""  transform="matrix(1 0 0 -1 0 14634)"  d="M0 8409.75L0 8409.75L0 8409.75L1440 8409.75L1440 8409.75L1440 7450.5L1440 7450.5L0 7450.5z" stroke="#FFFFFF" stroke-width="0.75" fill="none" stroke-opacity="0" />
    <path id=""  transform="matrix(1 0 0 -1 0 14634)"  d="M0 8409.75L0 8409.75L0 8409.75L1440 8409.75L1440 8409.75L1440 7450.5L1440 7450.5L0 7450.5z" stroke="#FFFFFF" stroke-width="0.75" fill="none" stroke-opacity="0" />
    <path id=""  transform="matrix(1 0 0 -1 0 14634)"  d="M0 4254L0 4254L0 4254L1440 4254L1440 4254L1440 3294.75L1440 3294.75L0 3294.75z" stroke="#FFFFFF" stroke-width="0.75" fill="none" stroke-opacity="0" />
    <path id=""  transform="matrix(1 0 0 -1 0 14634)"  d="M0 4254L0 4254L0 4254L1440 4254L1440 4254L1440 3294.75L1440 3294.75L0 3294.75z" stroke="#FFFFFF" stroke-width="0.75" fill="none" stroke-opacity="0" />
    <path id=""  transform="matrix(1 0 0 -1 0 14634)"  d="M0 959.25L0 959.25L0 959.25L1440 959.25L1440 959.25L1440 0L1440 0L0 0z" stroke="#FFFFFF" stroke-width="0.75" fill="none" stroke-opacity="0" />
    <path id=""  transform="matrix(1 0 0 -1 0 14634)"  d="M0 959.25L0 959.25L0 959.25L1440 959.25L1440 959.25L1440 0L1440 0L0 0z" stroke="#FFFFFF" stroke-width="0.75" fill="none" stroke-opacity="0" />
    <path id=""  transform="matrix(1 0 0 -1 0 14634)"  d="M1440 2992.5L1440 2992.5L1440 2992.5L0 2992.5L0 2992.5L0 2033.25L0 2033.25L1440 2033.25z" stroke="#FFFFFF" stroke-width="0.75" fill="none" stroke-opacity="0" />
    <path id=""  transform="matrix(1 0 0 -1 0 14634)"  d="M1440 2992.5L1440 2992.5L1440 2992.5L0 2992.5L0 2992.5L0 2033.25L0 2033.25L1440 2033.25z" stroke="#FFFFFF" stroke-width="0.75" fill="none" stroke-opacity="0" />
    <path id=""  transform="matrix(1 0 0 -1 0 14634)"  d="M1440 11079.75L1440 11079.75L1440 11079.75L0 11079.75L0 11079.75L0 10120.5L0 10120.5L1440 10120.5z" stroke="#FFFFFF" stroke-width="0.75" fill="none" stroke-opacity="0" />
    <path id=""  transform="matrix(1 0 0 -1 0 14634)"  d="M1440 11079.75L1440 11079.75L1440 11079.75L0 11079.75L0 11079.75L0 10120.5L0 10120.5L1440 10120.5z" stroke="#FFFFFF" stroke-width="0.75" fill="none" stroke-opacity="0" />
    <path id=""  transform="matrix(1 0 0 -1 0 14634)"  d="M1440 14634L1440 14634L1440 14634L0 14634L0 14634L0 13674.75L0 13674.75L1440 13674.75z" stroke="#FFFFFF" stroke-width="0.75" fill="none" stroke-opacity="0" />
    <path id=""  transform="matrix(1 0 0 -1 0 14634)"  d="M1440 14634L1440 14634L1440 14634L0 14634L0 14634L0 13674.75L0 13674.75L1440 13674.75z" stroke="#FFFFFF" stroke-width="0.75" fill="none" stroke-opacity="0" />
    <path id=""  transform="matrix(1 0 0 -1 0 14634)"  d="M-213.53632 10865.25L-213.53632 10865.25L-213.53632 10865.25L345.15048 10763.354L345.15048 10763.354L200.9368 9972.645L200.9368 9972.645L-357.74994 10074.541z" stroke="#FFFFFF" stroke-width="0.75" fill="none" stroke-opacity="0" />
    <path id=""  transform="matrix(1 0 0 -1 0 14634)"  d="M95.625 10663.875L95.625 10663.875L95.625 10663.875L-12.75 10684.875L-12.75 10684.875L-15 10671L-15 10671L93.75 10653.375L93.75 10653.375L95.625 10663.875z" stroke="#FFFFFF" stroke-width="1" fill="#FFFFFF" fill-rule="nonzero" />
	</g>
</g>
</svg>