<?xml version="1.0" standalone="no"?>
<!DOCTYPE svg PUBLIC "-//W3C//DTD SVG 1.0//EN" "http://www.w3.org/TR/2001/REC-SVG-20010904/DTD/svg10.dtd">
<svg xmlns="http://www.w3.org/2000/svg" xmlns:xlink="http://www.w3.org/1999/xlink" id="body_2" width="312" height="200">

<defs>
    <clipPath  id="1">

    <path id=""  clip-rule="evenodd" transform="matrix(1 0 0 1 0 0)"  d="M0 150L0 -0.75L0 -0.75L234.75 -0.75L234.75 -0.75L234.75 150L234.75 150L0 150z" />    </clipPath>
</defs>

<g transform="matrix(1.3333 0 0 1.3333 0 0)">
	<g clip-path="url(#1)" >
    <path id=""  transform="matrix(1 0 0 -1 0 150)"  d="M0 150.75L0 150.75L0 150.75L0 150.75L0 150.75L189.75 150.75L189.75 150.75L189.75 150.75C 214.60275 150.75 234.75 130.60283 234.75 105.75L234.75 105.75L234.75 105.75L234.75 105.75L234.75 0L234.75 0L234.75 0L234.75 0L45 0L45 0L45 0C 20.147175 0 0 20.147247 0 45L0 45L0 45L0 45L0 150.75z" stroke="#FFFFFF" stroke-width="1" fill="#F6F6F6" fill-rule="nonzero" />
    <path id=""  transform="matrix(1 0 0 -1 0 150)"  d="M-86.25 174.75L-86.25 174.75L-86.25 174.75L261.75 174.75L261.75 174.75L261.75 -57.75L261.75 -57.75L-86.25 -57.75z" stroke="#FFFFFF" stroke-width="0.75" fill="none" stroke-opacity="0" />
	</g>
</g>
</svg>