<?xml version="1.0" standalone="no"?>
<!DOCTYPE svg PUBLIC "-//W3C//DTD SVG 1.0//EN" "http://www.w3.org/TR/2001/REC-SVG-20010904/DTD/svg10.dtd">
<svg xmlns="http://www.w3.org/2000/svg" xmlns:xlink="http://www.w3.org/1999/xlink" id="body_9" width="340" height="192">

<defs>
    <clipPath  id="1">

    <path id=""  clip-rule="evenodd" transform="matrix(1 0 0 1 0 0)"  d="M0 144L0 0L0 0L255 0L255 0L255 144L255 144L0 144z" />    </clipPath>
</defs>

<g transform="matrix(1.3333 0 0 1.3333 0 0)">
	<g clip-path="url(#1)" >
    <path id=""  transform="matrix(1 0 0 -1 0 144)"  d="M0 144L0 144L0 144L254.9295 144L254.9295 144L254.9295 0.5482483L254.9295 0.5482483L0 0.5482483z" stroke="#FFFFFF" stroke-width="0.75" fill="none" stroke-opacity="0" />
    <path id=""  transform="matrix(1 0 0 -1 0 144)"  d="M200.25 33L200.25 33L200.25 33L255 33L255 33L255 0.75L255 0.75L200.25 0.75z" stroke="#FFFFFF" stroke-width="0.75" fill="#000000" fill-rule="nonzero" fill-opacity="0.007843138" />
    <path id=""  transform="matrix(1 0 0 -1 0 144)"  d="M200.25 33L200.25 33L200.25 33L255 33L255 33L255 0.75L255 0.75L200.25 0.75z" stroke="#FFFFFF" stroke-width="0.75" fill="#000000" fill-rule="nonzero" />
    <path id=""  transform="matrix(1 0 0 -1 0 144)"  d="M237.42676 16.995003C 237.99376 16.995003 238.45276 17.147995 238.80374 17.454002L238.80374 17.454002L238.80374 17.454002C 239.16376 17.759995 239.34375 18.147003 239.34375 18.615005L239.34375 18.615005L239.34375 18.615005C 239.34375 19.074005 239.16824 19.452003 238.81726 19.749L238.81726 19.749L238.81726 19.749C 238.47525 20.055008 237.99825 20.208 237.38626 20.208L237.38626 20.208L237.38626 20.208C 236.83725 20.208 236.39175 20.059502 236.04974 19.762505L236.04974 19.762505L236.04974 19.762505C 235.70776 19.474503 235.53676 19.087494 235.53676 18.601501L235.53676 18.601501L235.53676 18.601501C 235.53676 18.106499 235.70776 17.714996 236.04974 17.426994L236.04974 17.426994L236.04974 17.426994C 236.39175 17.139008 236.85074 16.995003 237.42676 16.995003zM237.29175 21.585C 238.58775 21.585 239.59125 21.180008 240.30226 20.370003L240.30226 20.370003L240.30226 20.370003C 241.02225 19.559998 241.38223 18.399002 241.38223 16.887009L241.38223 16.887009L241.38223 16.887009C 241.38223 15.825012 241.18875 14.916 240.80176 14.160004L240.80176 14.160004L240.80176 14.160004C 240.41476 13.412994 239.87024 12.841492 239.16824 12.445496L239.16824 12.445496L239.16824 12.445496C 238.47525 12.058502 237.66975 11.8650055 236.75175 11.8650055L236.75175 11.8650055L236.75175 11.8650055C 236.26575 11.8650055 235.80675 11.914505 235.37476 12.013504L235.37476 12.013504L235.37476 12.013504C 234.95175 12.121506 234.58276 12.274506 234.26775 12.472504L234.26775 12.472504L234.91576 13.795502C 235.38376 13.489502 235.98225 13.336502 236.71124 13.336502L236.71124 13.336502L236.71124 13.336502C 237.62024 13.336502 238.33124 13.615509 238.84427 14.173492L238.84427 14.173492L238.84427 14.173492C 239.35725 14.731506 239.61374 15.537003 239.61374 16.589996L239.61374 16.589996L239.61374 16.589996L239.61374 16.589996L239.61374 16.6035L239.61374 16.6035L239.61374 16.6035C 239.33475 16.279495 238.97925 16.032005 238.54724 15.860992L238.54724 15.860992L238.54724 15.860992C 238.11525 15.699005 237.62924 15.618011 237.08923 15.618011L237.08923 15.618011L237.08923 15.618011C 236.46823 15.618011 235.91025 15.735001 235.41525 15.969009L235.41525 15.969009L235.41525 15.969009C 234.92024 16.211998 234.53325 16.554 234.25424 16.995003L234.25424 16.995003L234.25424 16.995003C 233.97525 17.436005 233.83575 17.944496 233.83575 18.5205L233.83575 18.5205L233.83575 18.5205C 233.83575 19.132492 233.98874 19.668 234.29475 20.126999L234.29475 20.126999L234.29475 20.126999C 234.60074 20.595001 235.01474 20.955002 235.53676 21.207L235.53676 21.207L235.53676 21.207C 236.05875 21.459 236.64374 21.585 237.29175 21.585zM230.27101 17.548492C 231.14398 17.440498 231.81 17.143501 232.26898 16.657501L232.26898 16.657501L232.26898 16.657501C 232.728 16.171494 232.95749 15.563995 232.95749 14.834991L232.95749 14.834991L232.95749 14.834991C 232.95749 14.286011 232.81801 13.786499 232.539 13.336502L232.539 13.336502L232.539 13.336502C 232.26 12.886505 231.837 12.526489 231.26999 12.2565L231.26999 12.2565L231.26999 12.2565C 230.712 11.995499 230.02802 11.8650055 229.21799 11.8650055L229.21799 11.8650055L229.21799 11.8650055C 228.543 11.8650055 227.8905 11.959503 227.2605 12.148499L227.2605 12.148499L227.2605 12.148499C 226.6395 12.346497 226.10849 12.616501 225.66751 12.958496L225.66751 12.958496L226.42351 14.321991C 226.7655 14.033997 227.1795 13.804504 227.6655 13.633499L227.6655 13.633499L227.6655 13.633499C 228.16049 13.471497 228.669 13.390503 229.19101 13.390503L229.19101 13.390503L229.19101 13.390503C 229.81198 13.390503 230.298 13.51651 230.64902 13.768494L230.64902 13.768494L230.64902 13.768494C 231.009 14.029495 231.18901 14.380493 231.18901 14.821503L231.18901 14.821503L231.18901 14.821503C 231.18901 15.262512 231.01799 15.604492 230.676 15.847504L230.676 15.847504L230.676 15.847504C 230.34299 16.099503 229.83 16.225502 229.137 16.225502L229.137 16.225502L229.137 16.225502L229.137 16.225502L228.27301 16.225502L228.27301 16.225502L228.27301 16.225502L228.27301 16.225502L228.27301 17.426994L228.27301 17.426994L230.41951 19.9785L230.41951 19.9785L230.41951 19.9785L230.41951 19.9785L226.12651 19.9785L226.12651 19.9785L226.12651 19.9785L226.12651 19.9785L226.12651 21.450005L226.12651 21.450005L226.12651 21.450005L226.12651 21.450005L232.56601 21.450005L232.56601 21.450005L232.56601 21.450005L232.56601 21.450005L232.56601 20.275497L232.56601 20.275497L230.27101 17.548492zM224.00551 11.905487C 223.6995 11.905487 223.4385 12.009003 223.2225 12.216003L223.2225 12.216003L223.2225 12.216003C 223.0065 12.432007 222.8985 12.701996 222.8985 13.026001L222.8985 13.026001L222.8985 13.026001C 222.8985 13.358994 223.002 13.628998 223.209 13.835999L223.209 13.835999L223.209 13.835999C 223.42499 14.042999 223.69049 14.1465 224.00551 14.1465L224.00551 14.1465L224.00551 14.1465C 224.3205 14.1465 224.58148 14.042999 224.78848 13.835999L224.78848 13.835999L224.78848 13.835999C 225.00452 13.628998 225.11249 13.358994 225.11249 13.026001L225.11249 13.026001L225.11249 13.026001C 225.11249 12.701996 225.00452 12.432007 224.78848 12.216003L224.78848 12.216003L224.78848 12.216003C 224.5725 12.009003 224.3115 11.905487 224.00551 11.905487zM224.00551 17.048996C 223.6995 17.048996 223.4385 17.152496 223.2225 17.359497L223.2225 17.359497L223.2225 17.359497C 223.0065 17.5755 222.8985 17.845505 222.8985 18.169495L222.8985 18.169495L222.8985 18.169495C 222.8985 18.502502 223.002 18.7725 223.209 18.9795L223.209 18.9795L223.209 18.9795C 223.42499 19.1865 223.69049 19.29 224.00551 19.29L224.00551 19.29L224.00551 19.29C 224.3205 19.29 224.58148 19.1865 224.78848 18.9795L224.78848 18.9795L224.78848 18.9795C 225.00452 18.7725 225.11249 18.502502 225.11249 18.169495L225.11249 18.169495L225.11249 18.169495C 225.11249 17.845505 225.00452 17.5755 224.78848 17.359497L224.78848 17.359497L224.78848 17.359497C 224.5725 17.152496 224.3115 17.048996 224.00551 17.048996zM217.8105 13.390503C 218.4855 13.390503 219.01651 13.669495 219.4035 14.227509L219.4035 14.227509L219.4035 14.227509C 219.7995 14.785507 219.9975 15.618011 219.9975 16.725006L219.9975 16.725006L219.9975 16.725006C 219.9975 17.832 219.7995 18.664505 219.4035 19.222504L219.4035 19.222504L219.4035 19.222504C 219.01651 19.780495 218.4855 20.059502 217.8105 20.059502L217.8105 20.059502L217.8105 20.059502C 217.1445 20.059502 216.6135 19.780495 216.2175 19.222504L216.2175 19.222504L216.2175 19.222504C 215.83049 18.664505 215.637 17.832 215.637 16.725006L215.637 16.725006L215.637 16.725006C 215.637 15.618011 215.83049 14.785507 216.2175 14.227509L216.2175 14.227509L216.2175 14.227509C 216.6135 13.669495 217.1445 13.390503 217.8105 13.390503zM217.8105 11.8650055C 217.0545 11.8650055 216.37952 12.054001 215.78549 12.432007L215.78549 12.432007L215.78549 12.432007C 215.1915 12.819 214.72351 13.376999 214.3815 14.106003L214.3815 14.106003L214.3815 14.106003C 214.03949 14.844009 213.8685 15.716995 213.8685 16.725006L213.8685 16.725006L213.8685 16.725006C 213.8685 17.733002 214.03949 18.601501 214.3815 19.330505L214.3815 19.330505L214.3815 19.330505C 214.72351 20.068497 215.1915 20.626495 215.78549 21.004501L215.78549 21.004501L215.78549 21.004501C 216.37952 21.391502 217.0545 21.585 217.8105 21.585L217.8105 21.585L217.8105 21.585C 218.5665 21.585 219.24149 21.391502 219.83551 21.004501L219.83551 21.004501L219.83551 21.004501C 220.4385 20.626495 220.91101 20.068497 221.25299 19.330505L221.25299 19.330505L221.25299 19.330505C 221.595 18.601501 221.76599 17.733002 221.76599 16.725006L221.76599 16.725006L221.76599 16.725006C 221.76599 15.716995 221.595 14.844009 221.25299 14.106003L221.25299 14.106003L221.25299 14.106003C 220.91101 13.376999 220.4385 12.819 219.83551 12.432007L219.83551 12.432007L219.83551 12.432007C 219.24149 12.054001 218.5665 11.8650055 217.8105 11.8650055z" stroke="#FFFFFF" stroke-width="1" fill="#FFFFFF" fill-rule="nonzero" />
	</g>
</g>
</svg>