<?xml version="1.0" standalone="no"?>
<!DOCTYPE svg PUBLIC "-//W3C//DTD SVG 1.0//EN" "http://www.w3.org/TR/2001/REC-SVG-20010904/DTD/svg10.dtd">
<svg xmlns="http://www.w3.org/2000/svg" xmlns:xlink="http://www.w3.org/1999/xlink" id="body_6" width="636" height="636">

<defs>
    <clipPath  id="1">

    <path id=""  clip-rule="evenodd" transform="matrix(1 0 0 1 0 0)"  d="M0 477L0 0L0 0L477 0L477 0L477 477L477 477L0 477z" />    </clipPath>
</defs>

<g transform="matrix(1.3333 0 0 1.3333 0 0)">
	<g clip-path="url(#1)" >
    <path id=""  transform="matrix(1 0 0 -1 0 477)"  d="M255.474 263.25C 264.69 263.25 271.88998 267.21 277.074 275.13L277.074 275.13L277.074 275.13C 282.402 283.05 285.066 295.29 285.066 311.85L285.066 311.85L285.066 311.85C 285.066 328.41 282.402 340.65 277.074 348.57L277.074 348.57L277.074 348.57C 271.88998 356.49 264.69 360.45 255.474 360.45L255.474 360.45L255.474 360.45C 246.40201 360.45 239.202 356.49 233.874 348.57L233.874 348.57L233.874 348.57C 228.69 340.65 226.09799 328.41 226.09799 311.85L226.09799 311.85L226.09799 311.85C 226.09799 295.29 228.69 283.05 233.874 275.13L233.874 275.13L233.874 275.13C 239.202 267.21 246.40201 263.25 255.474 263.25zM255.474 233.658C 242.94601 233.658 231.78601 236.754 221.994 242.94601L221.994 242.94601L221.994 242.94601C 212.202 249.138 204.498 258.066 198.88199 269.73L198.88199 269.73L198.88199 269.73C 193.41 281.538 190.674 295.578 190.674 311.85L190.674 311.85L190.674 311.85C 190.674 328.122 193.41 342.09 198.88199 353.754L198.88199 353.754L198.88199 353.754C 204.498 365.562 212.202 374.562 221.994 380.754L221.994 380.754L221.994 380.754C 231.78601 386.94598 242.94601 390.042 255.474 390.042L255.474 390.042L255.474 390.042C 268.002 390.042 279.162 386.94598 288.954 380.754L288.954 380.754L288.954 380.754C 298.746 374.562 306.378 365.562 311.84998 353.754L311.84998 353.754L311.84998 353.754C 317.466 342.09 320.27402 328.122 320.27402 311.85L320.27402 311.85L320.27402 311.85C 320.27402 295.578 317.466 281.538 311.84998 269.73L311.84998 269.73L311.84998 269.73C 306.378 258.066 298.746 249.138 288.954 242.94601L288.954 242.94601L288.954 242.94601C 279.162 236.754 268.002 233.658 255.474 233.658z" stroke="#FFFFFF" stroke-width="1" fill="#F9E547" fill-rule="nonzero" />
    <path id=""  transform="matrix(1 0 0 -1 0 477)"  d="M0 477L0 477L0 477L477 477L477 477L477 0L477 0L0 0z" stroke="#FFFFFF" stroke-width="0.75" fill="none" stroke-opacity="0" />
    <path id=""  transform="matrix(1 0 0 -1 0 477)"  d="M152.25 89.625C 152.25 91.48895 202.61797 93 264.75 93L264.75 93L264.75 93C 326.88205 93 377.25 91.48895 377.25 89.625L377.25 89.625L377.25 89.625C 377.25 87.76105 326.88205 86.25 264.75 86.25L264.75 86.25L264.75 86.25C 202.61797 86.25 152.25 87.76105 152.25 89.625" stroke="#FFFFFF" stroke-width="0.75" fill="none" stroke-opacity="0" />
	</g>
</g>
</svg>