<?xml version="1.0" standalone="no"?>
<!DOCTYPE svg PUBLIC "-//W3C//DTD SVG 1.0//EN" "http://www.w3.org/TR/2001/REC-SVG-20010904/DTD/svg10.dtd">
<svg xmlns="http://www.w3.org/2000/svg" xmlns:xlink="http://www.w3.org/1999/xlink" id="body_7" width="252" height="215">

<defs>
    <clipPath  id="1">

    <path id=""  clip-rule="evenodd" transform="matrix(1 0 0 1 0 0)"  d="M0 161L0 -0.25L0 -0.25L189.75 -0.25L189.75 -0.25L189.75 161L189.75 161L0 161z" />    </clipPath>
</defs>

<g transform="matrix(1.3333 0 0 1.3333 0 0)">
	<g clip-path="url(#1)" >
    <path id=""  transform="matrix(1 0 0 -1 0 161)"  d="M152.25 85.125C 152.25 43.082245 118.167755 9 76.125 9L76.125 9L76.125 9C 34.082325 9 0 43.082245 0 85.125L0 85.125L0 85.125C 0 127.16768 34.082325 161.25 76.125 161.25L76.125 161.25L76.125 161.25C 118.167755 161.25 152.25 127.16768 152.25 85.125z" stroke="#FFFFFF" stroke-width="1" fill="#307FE2" fill-rule="nonzero" />
    <path id=""  transform="matrix(1 0 0 -1 0 161)"  d="M57 104.24887L57 104.24887L57 104.24887L94.66748 104.24887L94.66748 104.24887L94.66748 66.58139L94.66748 66.58139L57 66.58139z" stroke="#FFFFFF" stroke-width="0.75" fill="none" stroke-opacity="0" />
    <path id=""  transform="matrix(1 0 0 -1 0 161)"  d="M57 104.24887L57 104.24887L57 104.24887L96.11617 104.24887L96.11617 104.24887L96.11617 65.1327L96.11617 65.1327L57 65.1327z" stroke="#FFFFFF" stroke-width="0.75" fill="#FFFFFF" fill-rule="nonzero" />
    <path id=""  transform="matrix(1 0 0 -1 0 161)"  d="M116.048996 10.7400055C 116.67375 11.085754 117.314255 11.252258 117.96901 11.238754L117.96901 11.238754L117.96901 11.238754C 118.6275 11.235748 119.236496 11.061005 119.796 10.714493L119.796 10.714493L119.796 10.714493C 120.356255 10.368744 120.810745 9.880493 121.16025 9.249741L121.16025 9.249741L121.16025 9.249741C 121.508995 8.619003 121.68225 7.973999 121.678505 7.3162537L121.678505 7.3162537L121.678505 7.3162537C 121.67549 6.6577454 121.50226 6.045746 121.1595 5.480255L121.1595 5.480255L121.1595 5.480255C 120.819 4.923752 120.336754 4.4722443 119.71275 4.1264954L119.71275 4.1264954L119.71275 4.1264954C 119.167496 3.8250122 118.62074 3.6419983 118.07175 3.5774994L118.07175 3.5774994L118.07175 3.5774994C 117.529495 3.5175018 117.01425 3.5805054 116.52675 3.76651L116.52675 3.76651L116.873245 4.918503C 117.62625 4.67099 118.35825 4.744507 119.0685 5.1382446L119.0685 5.1382446L119.0685 5.1382446C 119.619 5.4434967 119.991745 5.869507 120.1845 6.4162445L120.1845 6.4162445L120.1845 6.4162445C 120.383995 6.966751 120.373505 7.5412445 120.15375 8.13974L120.15375 8.13974L117.27899 6.5475006L117.27899 6.5475006L116.75475 7.4940033L116.75475 7.4940033L119.611496 9.075745L119.611496 9.075745L119.611496 9.075745C 119.21925 9.538498 118.74525 9.824249 118.18875 9.932251L118.18875 9.932251L118.18875 9.932251C 117.63901 10.044006 117.0975 9.952499 116.565 9.657013L116.565 9.657013L116.565 9.657013C 115.85475 9.263245 115.404755 8.682007 115.21425 7.912506L115.21425 7.912506L114.05475 8.230499C 114.15525 8.742004 114.375 9.21225 114.714 9.63974L114.714 9.63974L114.714 9.63974C 115.059006 10.070999 115.5045 10.437759 116.048996 10.7400055z" stroke="#FFFFFF" stroke-width="1" fill="#FFFFFF" fill-rule="nonzero" />
    <path id=""  transform="matrix(1 0 0 -1 0 161)"  d="M125.61825 13.154251L125.61825 13.154251L125.61825 13.154251L123.978745 12.073502L123.978745 12.073502L126.453 8.321259L126.453 8.321259L125.357254 7.598999L125.357254 7.598999L122.882996 11.350494L122.882996 11.350494L121.23525 10.264496L121.23525 10.264496L120.6225 11.193756L120.6225 11.193756L125.00549 14.082748L125.00549 14.082748L125.61825 13.154251z" stroke="#FFFFFF" stroke-width="1" fill="#FFFFFF" fill-rule="nonzero" />
    <path id=""  transform="matrix(1 0 0 -1 0 161)"  d="M130.88174 12.782257C 131.2635 13.078506 131.48026 13.449753 131.53125 13.897491L131.53125 13.897491L131.53125 13.897491C 131.58301 14.345245 131.448 14.776489 131.12625 15.191254L131.12625 15.191254L131.12625 15.191254C 130.8045 15.606003 130.4205 15.844513 129.97424 15.905991L129.97424 15.905991L129.97424 15.905991C 129.528 15.967499 129.11475 15.849747 128.733 15.554245L128.733 15.554245L128.733 15.554245C 128.35124 15.257996 128.13449 14.886002 128.08275 14.438995L128.08275 14.438995L128.08275 14.438995C 128.03625 13.995743 128.17426 13.566757 128.496 13.151993L128.496 13.151993L128.496 13.151993C 128.81775 12.736496 129.19875 12.496506 129.63974 12.430511L129.63974 12.430511L129.63974 12.430511C 130.086 12.369003 130.5 12.486755 130.88174 12.782257zM131.57025 11.894241C 131.12175 11.546997 130.64325 11.330994 130.13326 11.245499L130.13326 11.245499L130.13326 11.245499C 129.62325 11.160751 129.1335 11.210251 128.6625 11.393997L128.6625 11.393997L128.6625 11.393997C 128.19376 11.588257 127.789505 11.903992 127.4505 12.341248L127.4505 12.341248L127.4505 12.341248C 127.111496 12.777756 126.909004 13.244995 126.842255 13.743011L126.842255 13.743011L126.842255 13.743011C 126.78075 14.244751 126.854996 14.731506 127.064255 15.20401L127.064255 15.20401L127.064255 15.20401C 127.2735 15.676498 127.602745 16.085999 128.05049 16.433243L128.05049 16.433243L128.05049 16.433243C 128.50426 16.785004 128.98575 17.003998 129.49574 17.088745L129.49574 17.088745L129.49574 17.088745C 130.00575 17.174255 130.49251 17.122498 130.9575 16.933502L130.9575 16.933502L130.9575 16.933502C 131.4285 16.74974 131.8335 16.438507 132.17175 16.001999L132.17175 16.001999L132.17175 16.001999C 132.51074 15.564758 132.71326 15.092987 132.7785 14.585251L132.7785 14.585251L132.7785 14.585251C 132.84525 14.087997 132.774 13.6035 132.56476 13.130997L132.56476 13.130997L132.56476 13.130997C 132.35475 12.658508 132.02325 12.246002 131.57025 11.894241z" stroke="#FFFFFF" stroke-width="1" fill="#FFFFFF" fill-rule="nonzero" />
    <path id=""  transform="matrix(1 0 0 -1 0 161)"  d="M139.323 20.034744C 139.66574 20.374496 139.83376 20.757751 139.8255 21.182999L139.8255 21.182999L139.8255 21.182999C 139.81726 21.618744 139.64325 22.007996 139.3035 22.351501L139.3035 22.351501L139.3035 22.351501C 138.96375 22.694244 138.5835 22.864502 138.16275 22.860748L138.16275 22.860748L138.16275 22.860748C 137.7465 22.862991 137.367 22.693497 137.02426 22.353745L137.02426 22.353745L137.02426 22.353745C 136.67625 22.008759 136.4985 21.626251 136.49174 21.205505L136.49174 21.205505L136.49174 21.205505C 136.485 20.784744 136.65149 20.403 136.992 20.05951L136.992 20.05951L136.992 20.05951C 137.337 19.711502 137.72475 19.5345 138.15524 19.527756L138.15524 19.527756L138.15524 19.527756C 138.591 19.525497 138.98026 19.694244 139.323 20.034744zM136.42725 23.32875C 136.80525 23.70375 137.21925 23.951996 137.67 24.073502L137.67 24.073502L137.67 24.073502C 138.11624 24.200256 138.56174 24.197998 139.0065 24.067505L139.0065 24.067505L139.0065 24.067505C 139.4565 23.941498 139.866 23.692505 140.23575 23.319748L140.23575 23.319748L140.23575 23.319748C 140.61525 22.93724 140.8635 22.507492 140.9805 22.032013L140.9805 22.032013L140.9805 22.032013C 141.09225 21.561005 141.0675 21.084 140.90701 20.599503L140.90701 20.599503L140.90701 20.599503C 140.7465 20.115005 140.45999 19.668 140.0475 19.259247L140.0475 19.259247L140.0475 19.259247C 139.356 18.574509 138.59476 18.272995 137.76375 18.356262L137.76375 18.356262L137.76375 18.356262C 136.93274 18.438751 136.0905 18.910507 135.2385 19.770752L135.2385 19.770752L135.2385 19.770752C 134.44499 20.571 133.98825 21.375 133.86826 22.182007L133.86826 22.182007L133.86826 22.182007C 133.7475 22.989746 133.96649 23.817749 134.5245 24.666748L134.5245 24.666748L135.9825 26.895004L135.9825 26.895004L136.94475 26.192993L136.94475 26.192993L135.60675 24.186737L135.60675 24.186737L135.60675 24.186737C 135.22275 23.609253 135.03 23.082748 135.02776 22.608002L135.02776 22.608002L135.02776 22.608002C 135.02625 22.132492 135.21976 21.65924 135.60825 21.186737L135.60825 21.186737L135.60825 21.186737C 135.57526 21.578247 135.62926 21.956238 135.7695 22.32225L135.7695 22.32225L135.7695 22.32225C 135.9045 22.692749 136.1235 23.028748 136.42725 23.32875z" stroke="#FFFFFF" stroke-width="1" fill="#FFFFFF" fill-rule="nonzero" />
    <path id=""  transform="matrix(1 0 0 -1 0 161)"  d="M141.57675 27.84076C 141.30374 27.521255 141.168 27.168 141.168 26.78099L141.168 26.78099L141.168 26.78099C 141.168 26.403748 141.3045 26.056503 141.5775 25.740005L141.5775 25.740005L143.6445 28.158752C 143.2995 28.380005 142.938 28.463257 142.56 28.40924L142.56 28.40924L142.56 28.40924C 142.182 28.354492 141.85425 28.16475 141.57675 27.84076zM144.8235 28.794754C 144.8925 28.735504 144.98625 28.646255 145.1055 28.526245L145.1055 28.526245L142.2465 25.182007C 142.611 24.972 142.99051 24.910507 143.38574 24.996002L143.38574 24.996002L143.38574 24.996002C 143.78024 25.091248 144.135 25.32225 144.4485 25.689758L144.4485 25.689758L144.4485 25.689758C 144.849 26.157745 145.0245 26.675247 144.975 27.243011L144.975 27.243011L146.04675 27.251999C 146.112 26.865005 146.0775 26.475006 145.94475 26.082L145.94475 26.082L145.94475 26.082C 145.81125 25.689758 145.58775 25.30951 145.27426 24.942749L145.27426 24.942749L145.27426 24.942749C 144.87375 24.473999 144.42825 24.141754 143.937 23.944489L143.937 23.944489L143.937 23.944489C 143.4465 23.746506 142.9515 23.690994 142.4535 23.775757L142.4535 23.775757L142.4535 23.775757C 141.95474 23.871002 141.495 24.098251 141.07425 24.457504L141.07425 24.457504L141.07425 24.457504C 140.6595 24.81224 140.367 25.223251 140.196 25.692001L140.196 25.692001L140.196 25.692001C 140.02426 26.169754 139.989 26.655746 140.0895 27.150757L140.0895 27.150757L140.0895 27.150757C 140.18925 27.645004 140.4195 28.102509 140.77875 28.522491L140.77875 28.522491L140.77875 28.522491C 141.1335 28.938004 141.54225 29.228241 142.0065 29.39325L142.0065 29.39325L142.0065 29.39325C 142.46925 29.568756 142.9455 29.603241 143.43524 29.497498L143.43524 29.497498L143.43524 29.497498C 143.92426 29.402252 144.38701 29.167496 144.8235 28.794754z" stroke="#FFFFFF" stroke-width="1" fill="#FFFFFF" fill-rule="nonzero" />
    <path id=""  transform="matrix(1 0 0 -1 0 161)"  d="M149.6115 30.462753C 149.2695 29.993256 148.86375 29.643005 148.3935 29.414246L148.3935 29.414246L148.3935 29.414246C 147.924 29.184753 147.43724 29.093246 146.934 29.139008L146.934 29.139008L146.934 29.139008C 146.42474 29.189255 145.94699 29.376755 145.5 29.70224L145.5 29.70224L145.5 29.70224C 145.05225 30.027756 144.72975 30.423004 144.53099 30.887253L144.53099 30.887253L144.53099 30.887253C 144.33301 31.35225 144.2685 31.8405 144.33826 32.352753L144.33826 32.352753L144.33826 32.352753C 144.41174 32.87024 144.62175 33.367508 144.9675 33.842255L144.9675 33.842255L144.9675 33.842255C 145.293 34.29 145.668 34.614 146.0925 34.816498L146.0925 34.816498L146.0925 34.816498C 146.52075 35.024254 146.96625 35.089493 147.429 35.012253L147.429 35.012253L147.31125 33.851242C 147.00749 33.873 146.73225 33.82199 146.48625 33.69825L146.48625 33.69825L146.48625 33.69825C 146.23875 33.58426 146.03024 33.411003 145.8615 33.179245L145.8615 33.179245L145.8615 33.179245C 145.5735 32.78325 145.46475 32.36026 145.53525 31.910248L145.53525 31.910248L145.53525 31.910248C 145.6005 31.464752 145.848 31.08525 146.2785 30.771759L146.2785 30.771759L146.2785 30.771759C 146.70825 30.459 147.14626 30.33525 147.59175 30.39975L147.59175 30.39975L147.59175 30.39975C 148.0365 30.474747 148.40475 30.713257 148.69725 31.11525L148.69725 31.11525L148.69725 31.11525C 148.866 31.347 148.96951 31.59674 149.00775 31.862991L149.00775 31.862991L149.00775 31.862991C 149.0445 32.13974 149.0055 32.418762 148.89075 32.701508L148.89075 32.701508L149.9595 33.170258C 150.17099 32.748 150.24675 32.29875 150.186 31.823242L150.186 31.823242L150.186 31.823242C 150.1245 31.357498 149.9325 30.903748 149.6115 30.462753z" stroke="#FFFFFF" stroke-width="1" fill="#FFFFFF" fill-rule="nonzero" />
    <path id=""  transform="matrix(1 0 0 -1 0 161)"  d="M150.21675 41.831245L150.21675 41.831245L150.21675 41.831245L155.01375 38.927246L155.01375 38.927246L154.3395 37.8135L154.3395 37.8135L150.495 40.140747L150.495 40.140747L149.06476 37.77899L149.06476 37.77899L152.90924 35.451004L152.90924 35.451004L152.229 34.328247L152.229 34.328247L147.43274 37.232254L147.43274 37.232254L150.21675 41.831245z" stroke="#FFFFFF" stroke-width="1" fill="#FFFFFF" fill-rule="nonzero" />
    <path id=""  transform="matrix(1 0 0 -1 0 161)"  d="M153.4095 48.07125L153.4095 48.07125L153.4095 48.07125L158.433 45.581245L158.433 45.581245L157.85025 44.40525L157.85025 44.40525L153.8235 46.401L153.8235 46.401L152.89125 44.520004L152.89125 44.520004L153.86475 43.9785L153.86475 43.9785L153.86475 43.9785C 154.51425 43.617752 155.04074 43.278 155.44576 42.96L155.44576 42.96L155.44576 42.96C 155.84775 42.65175 156.126 42.322495 156.28049 41.972244L156.28049 41.972244L156.28049 41.972244C 156.432 41.630997 156.41475 41.2725 156.228 40.89676L156.228 40.89676L156.228 40.89676C 156.141 40.721252 155.99924 40.52176 155.80275 40.298996L155.80275 40.298996L154.84274 40.845C 154.905 40.922997 154.9515 40.994247 154.983 41.056503L154.983 41.056503L154.983 41.056503C 155.10074 41.295 155.0955 41.520004 154.96649 41.733L154.96649 41.733L154.96649 41.733C 154.8315 41.94825 154.6395 42.137253 154.392 42.299255L154.392 42.299255L154.392 42.299255C 154.14075 42.470245 153.774 42.691498 153.291 42.96225L153.291 42.96225L151.395 44.00775L151.395 44.00775L153.4095 48.07125z" stroke="#FFFFFF" stroke-width="1" fill="#FFFFFF" fill-rule="nonzero" />
    <path id=""  transform="matrix(1 0 0 -1 0 161)"  d="M159.47101 50.273254C 159.59175 50.579247 159.63 50.87625 159.5865 51.164246L159.5865 51.164246L159.5865 51.164246C 159.5385 51.461998 159.4035 51.711 159.1815 51.912003L159.1815 51.912003L158.57625 52.151253L158.57625 52.151253L158.07825 50.89125L158.07825 50.89125L158.07825 50.89125C 157.79999 50.1885 157.89224 49.745247 158.35425 49.563004L158.35425 49.563004L158.35425 49.563004C 158.5755 49.47525 158.78625 49.494003 158.98575 49.617752L158.98575 49.617752L158.98575 49.617752C 159.186 49.74225 159.34724 49.960495 159.47101 50.273254zM155.08426 52.19925C 155.38725 52.967995 155.80501 53.480255 156.33525 53.736755L156.33525 53.736755L156.33525 53.736755C 156.86176 54.003 157.49625 53.989494 158.23875 53.69625L158.23875 53.69625L161.295 52.48725L161.295 52.48725L160.83899 51.33525L160.83899 51.33525L160.2045 51.586502L160.2045 51.586502L160.2045 51.586502C 160.37325 51.346504 160.46399 51.06224 160.47675 50.733L160.47675 50.733L160.47675 50.733C 160.4865 50.413498 160.41374 50.058746 160.25925 49.668L160.25925 49.668L160.25925 49.668C 160.10475 49.277252 159.9045 48.961502 159.65851 48.72L159.65851 48.72L159.65851 48.72C 159.40575 48.48076 159.1305 48.32625 158.83124 48.2565L158.83124 48.2565L158.83124 48.2565C 158.52899 48.194992 158.22824 48.224243 157.92825 48.34275L157.92825 48.34275L157.92825 48.34275C 157.4595 48.528 157.1535 48.84825 157.01025 49.304245L157.01025 49.304245L157.01025 49.304245C 156.86249 49.7685 156.93674 50.37526 157.233 51.12375L157.233 51.12375L157.7655 52.471504L157.7655 52.471504L157.6875 52.50226L157.6875 52.50226L157.6875 52.50226C 157.323 52.646255 156.99974 52.646255 156.717 52.50226L156.717 52.50226L156.717 52.50226C 156.4365 52.365005 156.2115 52.081497 156.04124 51.65175L156.04124 51.65175L156.04124 51.65175C 155.92575 51.358498 155.85675 51.050995 155.83426 50.7285L155.83426 50.7285L155.83426 50.7285C 155.81476 50.41275 155.84775 50.12474 155.93324 49.86525L155.93324 49.86525L154.8555 49.737747C 154.75575 50.09401 154.72574 50.485497 154.767 50.913002L154.767 50.913002L154.767 50.913002C 154.80824 51.341248 154.914 51.7695 155.08426 52.19925z" stroke="#FFFFFF" stroke-width="1" fill="#FFFFFF" fill-rule="nonzero" />
    <path id=""  transform="matrix(1 0 0 -1 0 161)"  d="M159.13126 60.337494L159.13126 60.337494L159.13126 60.337494L158.544 58.463997L158.544 58.463997L162.83174 57.119247L162.83174 57.119247L162.4395 55.867508L162.4395 55.867508L158.151 57.211502L158.151 57.211502L157.56075 55.328247L157.56075 55.328247L156.49875 55.661247L156.49875 55.661247L158.06924 60.6705L158.06924 60.6705L159.13126 60.337494z" stroke="#FFFFFF" stroke-width="1" fill="#FFFFFF" fill-rule="nonzero" />
    <path id=""  transform="matrix(1 0 0 -1 0 161)"  d="M158.4555 62.048996L158.4555 62.048996L158.4555 62.048996L158.75175 63.327744L158.75175 63.327744L160.97174 62.813995L160.97174 62.813995L161.60849 65.56575L161.60849 65.56575L159.3885 66.0795L159.3885 66.0795L159.68475 67.358246L159.68475 67.358246L165.147 66.09375L165.147 66.09375L164.8515 64.815L164.8515 64.815L162.693 65.3145L162.693 65.3145L162.05551 62.56276L162.05551 62.56276L164.21399 62.063255L164.21399 62.063255L163.9185 60.7845L163.9185 60.7845L158.4555 62.048996z" stroke="#FFFFFF" stroke-width="1" fill="#FFFFFF" fill-rule="nonzero" />
    <path id=""  transform="matrix(1 0 0 -1 0 161)"  d="M164.90475 71.1195C 164.9715 71.598 164.86801 72.015 164.59274 72.372L164.59274 72.372L164.59274 72.372C 164.31825 72.729004 163.92075 72.94425 163.401 73.017L163.401 73.017L163.401 73.017C 162.88126 73.0905 162.4395 72.993744 162.07724 72.72675L162.07724 72.72675L162.07724 72.72675C 161.71425 72.45975 161.499 72.087 161.4315 71.6085L161.4315 71.6085L161.4315 71.6085C 161.364 71.13 161.46825 70.713 161.74275 70.356L161.74275 70.356L161.74275 70.356C 162.01874 70.00575 162.41699 69.79425 162.93674 69.7215L162.93674 69.7215L162.93674 69.7215C 163.4565 69.647995 163.89749 69.741745 164.259 70.00125L164.259 70.00125L164.259 70.00125C 164.62201 70.26825 164.83725 70.64101 164.90475 71.1195zM166.017 70.962746C 165.9375 70.401 165.7455 69.91275 165.4395 69.49575L165.4395 69.49575L165.4395 69.49575C 165.1335 69.0795 164.74725 68.7735 164.28151 68.57774L164.28151 68.57774L164.28151 68.57774C 163.80975 68.389496 163.29974 68.334 162.75226 68.41125L162.75226 68.41125L162.75226 68.41125C 162.20474 68.4885 161.73375 68.682 161.33925 68.991745L161.33925 68.991745L161.33925 68.991745C 160.9455 69.309006 160.659 69.7095 160.47975 70.19475L160.47975 70.19475L160.47975 70.19475C 160.30049 70.679245 160.25026 71.201996 160.32974 71.76375L160.32974 71.76375L160.32974 71.76375C 160.40924 72.33225 160.60275 72.82425 160.90875 73.24125L160.90875 73.24125L160.90875 73.24125C 161.21475 73.6575 161.60025 73.95975 162.06525 74.14875L162.06525 74.14875L162.06525 74.14875C 162.53099 74.345245 163.038 74.4045 163.5855 74.32725L163.5855 74.32725L163.5855 74.32725C 164.133 74.25 164.607 74.05275 165.00749 73.73476L165.00749 73.73476L165.00749 73.73476C 165.402 73.424255 165.68925 73.027504 165.8685 72.54225L165.8685 72.54225L165.8685 72.54225C 166.04776 72.057755 166.09724 71.53125 166.017 70.962746z" stroke="#FFFFFF" stroke-width="1" fill="#FFFFFF" fill-rule="nonzero" />
    <path id=""  transform="matrix(1 0 0 -1 0 161)"  d="M166.66125 76.7415C 166.641 76.497 166.548 76.301254 166.3815 76.1535L166.3815 76.1535L166.3815 76.1535C 166.2075 76.00575 166.00575 75.941246 165.7755 75.96L165.7755 75.96L165.7755 75.96C 165.54526 75.97875 165.36 76.07475 165.21976 76.248L165.21976 76.248L165.21976 76.248C 165.0795 76.4205 165.01874 76.629 165.039 76.873505L165.039 76.873505L165.039 76.873505C 165.05774 77.110504 165.15076 77.2995 165.3165 77.4405L165.3165 77.4405L165.3165 77.4405C 165.483 77.589005 165.68175 77.6535 165.912 77.63475L165.912 77.63475L165.912 77.63475C 166.14224 77.616 166.33124 77.520004 166.47824 77.346L166.47824 77.346L166.47824 77.346C 166.61925 77.18025 166.68001 76.9785 166.66125 76.7415zM159.19875 76.569L159.19875 76.569L159.19875 76.569L159.32475 78.1185L159.32475 78.1185L164.20125 77.45775L164.20125 77.45775L164.11725 76.422005L164.11725 76.422005L159.19875 76.569z" stroke="#FFFFFF" stroke-width="1" fill="#FFFFFF" fill-rule="nonzero" />
    <path id=""  transform="matrix(1 0 0 -1 0 161)"  d="M137.235 77.4045L137.235 77.4045L137.235 77.4045L129.96825 78.504L129.96825 78.504L130.12201 79.52175L130.12201 79.52175L136.48575 78.558754L136.48575 78.558754L137.124 82.77375L137.124 82.77375L130.75949 83.736755L130.75949 83.736755L130.9155 84.76425L130.9155 84.76425L138.18225 83.66475L138.18225 83.66475L137.235 77.4045z" stroke="#FFFFFF" stroke-width="1" fill="#FFFFFF" fill-rule="nonzero" />
    <path id=""  transform="matrix(1 0 0 -1 0 161)"  d="M130.10776 73.8435C 130.01251 73.49925 130.00575 73.170746 130.08676 72.858L130.08676 72.858L130.08676 72.858C 130.173 72.537 130.33575 72.2595 130.57724 72.02625L130.57724 72.02625L130.57724 72.02625C 130.82475 71.791504 131.13376 71.62275 131.505 71.52075L131.505 71.52075L131.505 71.52075C 131.87625 71.41875 132.225 71.406 132.55125 71.483246L132.55125 71.483246L132.55125 71.483246C 132.88425 71.559006 133.16624 71.7135 133.39725 71.9475L133.39725 71.9475L133.39725 71.9475C 133.62675 72.17475 133.78874 72.460495 133.884 72.80475L133.884 72.80475L133.884 72.80475C 133.9785 73.149 133.986 73.4805 133.90726 73.8L133.90726 73.8L133.90726 73.8C 133.82625 74.11275 133.66275 74.39024 133.4175 74.63175L133.4175 74.63175L133.4175 74.63175C 133.176 74.865 132.87074 75.033 132.4995 75.135L132.4995 75.135L132.4995 75.135C 132.12825 75.237 131.77576 75.2505 131.44275 75.17475L131.44275 75.17475L131.44275 75.17475C 131.115 75.09075 130.83301 74.93625 130.59674 74.710495L130.59674 74.710495L130.59674 74.710495C 130.365 74.4765 130.20224 74.18775 130.10776 73.8435zM129.25725 74.0775C 129.4035 74.61075 129.65399 75.057 130.0065 75.41775L130.0065 75.41775L130.0065 75.41775C 130.35976 75.777756 130.776 76.022995 131.2545 76.152756L131.2545 76.152756L131.2545 76.152756C 131.73825 76.2735 132.24301 76.2615 132.7695 76.116745L132.7695 76.116745L132.7695 76.116745C 133.29599 75.972 133.7325 75.72525 134.07901 75.37575L134.07901 75.37575L134.07901 75.37575C 134.43076 75.01725 134.6625 74.59425 134.775 74.106L134.775 74.106L134.775 74.106C 134.89424 73.6155 134.88075 73.104004 134.7345 72.570755L134.7345 72.570755L134.7345 72.570755C 134.5875 72.037506 134.3385 71.59425 133.98749 71.241L133.98749 71.241L133.98749 71.241C 133.641 70.878746 133.2255 70.63725 132.74251 70.515755L132.74251 70.515755L132.74251 70.515755C 132.264 70.386 131.7615 70.3935 131.235 70.53825L131.235 70.53825L131.235 70.53825C 130.7085 70.683 130.26974 70.935 129.918 71.29275L129.918 71.29275L129.918 71.29275C 129.57076 71.64225 129.33826 72.06225 129.21901 72.55275L129.21901 72.55275L129.21901 72.55275C 129.0975 73.03575 129.11026 73.54425 129.25725 74.0775z" stroke="#FFFFFF" stroke-width="1" fill="#FFFFFF" fill-rule="nonzero" />
    <path id=""  transform="matrix(1 0 0 -1 0 161)"  d="M131.93324 63.689255L131.93324 63.689255L131.93324 63.689255L126.77625 65.78025L126.77625 65.78025L127.155 66.714005L127.155 66.714005L131.49524 64.9545L131.49524 64.9545L132.3945 67.173004L132.3945 67.173004L131.27025 67.69725L131.27025 67.69725L131.27025 67.69725C 130.58925 68.01075 130.03351 68.307755 129.603 68.58825L129.603 68.58825L129.603 68.58825C 129.17924 68.86575 128.87024 69.165 128.67525 69.48525L128.67525 69.48525L128.67525 69.48525C 128.48026 69.806244 128.45775 70.15125 128.60776 70.520996L128.60776 70.520996L128.60776 70.520996C 128.67676 70.68975 128.78325 70.868996 128.92801 71.0595L128.92801 71.0595L129.693 70.681496C 129.639 70.60575 129.59775 70.5315 129.56924 70.46025L129.56924 70.46025L129.56924 70.46025C 129.4635 70.200745 129.49875 69.96 129.67276 69.738L129.67276 69.738L129.67276 69.738C 129.8475 69.516754 130.08224 69.32325 130.37775 69.1575L130.37775 69.1575L130.37775 69.1575C 130.67325 68.9925 131.10374 68.776505 131.66776 68.510254L131.66776 68.510254L133.539 67.64925L133.539 67.64925L131.93324 63.689255z" stroke="#FFFFFF" stroke-width="1" fill="#FFFFFF" fill-rule="nonzero" />
    <path id=""  transform="matrix(1 0 0 -1 0 161)"  d="M128.96774 57.227997L128.96774 57.227997L128.96774 57.227997L124.833 62.487L124.833 62.487L124.833 62.487C 124.444496 62.963257 124.224 63.398254 124.17149 63.791245L124.17149 63.791245L124.17149 63.791245C 124.116005 64.177505 124.19325 64.56825 124.40399 64.96425L124.40399 64.96425L124.40399 64.96425C 124.53225 65.205 124.69725 65.418 124.899 65.604004L124.899 65.604004L124.899 65.604004C 125.09175 65.787 125.30175 65.913 125.52899 65.98275L125.52899 65.98275L125.994 65.247C 125.61825 65.1225 125.34149 64.893005 125.16374 64.55925L125.16374 64.55925L125.16374 64.55925C 125.04825 64.34325 125.011505 64.13249 125.053505 63.92775L125.053505 63.92775L125.053505 63.92775C 125.085754 63.72075 125.2095 63.48375 125.42475 63.218246L125.42475 63.218246L125.68425 62.878494L125.68425 62.878494L131.742 62.436005L131.742 62.436005L131.2485 61.50975L131.2485 61.50975L126.40575 61.88775L126.40575 61.88775L129.432 58.098747L129.432 58.098747L128.96774 57.227997z" stroke="#FFFFFF" stroke-width="1" fill="#FFFFFF" fill-rule="nonzero" />
    <path id=""  transform="matrix(1 0 0 -1 0 161)"  d="M126.069 52.329742L126.069 52.329742L126.069 52.329742L121.498505 55.5045L121.498505 55.5045L122.073006 56.332504L122.073006 56.332504L123.918755 55.05075L123.918755 55.05075L123.918755 55.05075C 124.032005 55.704742 124.2585 56.276253 124.5975 56.765244L124.5975 56.765244L124.5975 56.765244C 124.9935 57.334503 125.43075 57.682503 125.91075 57.80925L125.91075 57.80925L125.91075 57.80925C 126.39075 57.936005 126.8955 57.815254 127.424255 57.4485L127.424255 57.4485L128.90775 56.418L128.90775 56.418L128.33325 55.589996L128.33325 55.589996L126.9015 56.584503L126.9015 56.584503L126.9015 56.584503C 126.585 56.804245 126.27825 56.87175 125.981995 56.788498L125.981995 56.788498L125.981995 56.788498C 125.681244 56.6985 125.40675 56.475746 125.15925 56.119507L125.15925 56.119507L125.15925 56.119507C 124.88025 55.71675 124.679245 55.212753 124.55701 54.6075L124.55701 54.6075L126.64424 53.157745L126.64424 53.157745L126.069 52.329742z" stroke="#FFFFFF" stroke-width="1" fill="#FFFFFF" fill-rule="nonzero" />
    <path id=""  transform="matrix(1 0 0 -1 0 161)"  d="M124.9155 50.0775L124.9155 50.0775L124.9155 50.0775L124.24051 49.329002L124.24051 49.329002L121.232254 52.0455L121.232254 52.0455L121.953 46.79625L121.953 46.79625L121.340996 46.118248L121.340996 46.118248L117.210754 49.848747L117.210754 49.848747L117.886505 50.596504L117.886505 50.596504L120.894 47.879997L120.894 47.879997L120.166504 53.121002L120.166504 53.121002L120.786 53.80725L120.786 53.80725L124.9155 50.0775z" stroke="#FFFFFF" stroke-width="1" fill="#FFFFFF" fill-rule="nonzero" />
    <path id=""  transform="matrix(1 0 0 -1 0 161)"  d="M116.238754 42.131256L116.238754 42.131256L116.238754 42.131256L117.73575 43.513504L117.73575 43.513504L114.55875 46.9545L114.55875 46.9545L115.29975 47.63775L115.29975 47.63775L118.476 44.196747L118.476 44.196747L119.97301 45.578247L119.97301 45.578247L120.571495 44.930252L120.571495 44.930252L116.83725 41.483253L116.83725 41.483253L116.238754 42.131256z" stroke="#FFFFFF" stroke-width="1" fill="#FFFFFF" fill-rule="nonzero" />
    <path id=""  transform="matrix(1 0 0 -1 0 161)"  d="M111.36299 42.944252C 110.991745 42.681 110.769 42.405 110.69475 42.11551L110.69475 42.11551L110.69475 42.11551C 110.614494 41.82225 110.68425 41.526 110.90325 41.226746L110.90325 41.226746L110.90325 41.226746C 111.1185 40.933502 111.369 40.787247 111.654755 40.788002L111.654755 40.788002L111.654755 40.788002C 111.9345 40.785004 112.26601 40.91925 112.6485 41.191498L112.6485 41.191498L113.727745 41.956497L113.727745 41.956497L112.43625 43.7175L112.43625 43.7175L111.36299 42.944252zM112.8945 40.447495C 112.31999 40.035004 111.78975 39.84601 111.304504 39.880493L111.304504 39.880493L111.304504 39.880493C 110.81925 39.91574 110.40675 40.164 110.067 40.627502L110.067 40.627502L110.067 40.627502C 109.7115 41.112747 109.59975 41.608498 109.7325 42.11325L109.7325 42.11325L109.7325 42.11325C 109.864494 42.608994 110.23425 43.0755 110.8425 43.51275L110.8425 43.51275L112.79625 44.931747L112.79625 44.931747L116.0865 40.443756L116.0865 40.443756L115.2735 39.847504L115.2735 39.847504L114.162 41.36325L114.162 41.36325L112.8945 40.447495z" stroke="#FFFFFF" stroke-width="1" fill="#FFFFFF" fill-rule="nonzero" />
    <path id=""  transform="matrix(1 0 0 -1 0 161)"  d="M104.67525 36.32025L104.67525 36.32025L104.67525 36.32025L105.708755 36.836258L105.708755 36.836258L104.65725 38.940002L104.65725 38.940002L105.55875 39.390747L105.55875 39.390747L108.04649 34.413002L108.04649 34.413002L107.145004 33.96225L107.145004 33.96225L106.09349 36.065994L106.09349 36.065994L105.041245 35.540245L105.041245 35.540245L104.47725 32.6295L104.47725 32.6295L103.50975 32.145752L103.50975 32.145752L104.20125 35.483994L104.20125 35.483994L100.89075 37.058243L100.89075 37.058243L101.952 37.5885L101.952 37.5885L104.67525 36.32025z" stroke="#FFFFFF" stroke-width="1" fill="#FFFFFF" fill-rule="nonzero" />
    <path id=""  transform="matrix(1 0 0 -1 0 161)"  d="M98.095505 34.733253C 97.760254 34.611755 97.48799 34.427246 97.279495 34.180504L97.279495 34.180504L97.279495 34.180504C 97.06725 33.92475 96.93524 33.6315 96.88425 33.299995L96.88425 33.299995L96.88425 33.299995C 96.834755 32.96176 96.876 32.612244 97.00725 32.25L97.00725 32.25L97.00725 32.25C 97.138504 31.888504 97.32974 31.59674 97.58174 31.37474L97.58174 31.37474L97.58174 31.37474C 97.83525 31.146759 98.12474 31.005753 98.44951 30.9525L98.44951 30.9525L98.44951 30.9525C 98.7675 30.896255 99.094505 30.929245 99.42975 31.05075L99.42975 31.05075L99.42975 31.05075C 99.76575 31.172256 100.041 31.358246 100.256256 31.607254L100.256256 31.607254L100.256256 31.607254C 100.46475 31.854004 100.59601 32.147247 100.6515 32.487747L100.6515 32.487747L100.6515 32.487747C 100.7025 32.819244 100.66275 33.16574 100.53151 33.527252L100.53151 33.527252L100.53151 33.527252C 100.40025 33.889503 100.208244 34.18425 99.954 34.412247L99.954 34.412247L99.954 34.412247C 99.696 34.631996 99.40651 34.772255 99.08626 34.83525L99.08626 34.83525L99.08626 34.83525C 98.761505 34.888504 98.4315 34.85475 98.095505 34.733253zM97.794754 35.561996C 98.315254 35.751 98.823746 35.805008 99.32175 35.724747L99.32175 35.724747L99.32175 35.724747C 99.820496 35.6445 100.26075 35.44725 100.6425 35.1315L100.6425 35.1315L100.6425 35.1315C 101.021255 34.806747 101.30325 34.387505 101.48925 33.874496L101.48925 33.874496L101.48925 33.874496C 101.67525 33.361496 101.7255 32.862 101.64075 32.376755L101.64075 32.376755L101.64075 32.376755C 101.552246 31.883255 101.34075 31.449005 101.006996 31.0755L101.006996 31.0755L101.006996 31.0755C 100.676254 30.694489 100.25026 30.410248 99.7305 30.222L99.7305 30.222L99.7305 30.222C 99.210754 30.033005 98.705246 29.9805 98.21326 30.063004L98.21326 30.063004L98.21326 30.063004C 97.7175 30.136505 97.28099 30.33525 96.903 30.660004L96.903 30.660004L96.903 30.660004C 96.5205 30.975739 96.23625 31.38974 96.05025 31.903503L96.05025 31.903503L96.05025 31.903503C 95.86425 32.416504 95.8155 32.919754 95.904755 33.414L95.904755 33.414L95.904755 33.414C 95.9895 33.899254 96.19725 34.332 96.52875 34.71225L96.52875 34.71225L96.52875 34.71225C 96.852745 35.090256 97.274994 35.37375 97.794754 35.561996z" stroke="#FFFFFF" stroke-width="1" fill="#FFFFFF" fill-rule="nonzero" />
    <path id=""  transform="matrix(1 0 0 -1 0 161)"  d="M95.505 28.380753L95.505 28.380753L95.505 28.380753L94.52025 28.165497L94.52025 28.165497L94.015495 30.473251L94.015495 30.473251L90.918 29.79599L90.918 29.79599L91.422005 27.48825L91.422005 27.48825L90.43725 27.272995L90.43725 27.272995L89.24925 32.709747L89.24925 32.709747L90.23399 32.924988L90.23399 32.924988L90.731995 30.647247L90.731995 30.647247L93.8295 31.324509L93.8295 31.324509L93.3315 33.6015L93.3315 33.6015L94.316246 33.816757L94.316246 33.816757L95.505 28.380753z" stroke="#FFFFFF" stroke-width="1" fill="#FFFFFF" fill-rule="nonzero" />
    <path id=""  transform="matrix(1 0 0 -1 0 161)"  d="M85.0215 31.870499C 85.58475 31.933502 86.103 31.868256 86.5755 31.674744L86.5755 31.674744L86.5755 31.674744C 87.04125 31.4805 87.423004 31.184998 87.72075 30.789001L87.72075 30.789001L87.72075 30.789001C 88.020004 30.385498 88.2 29.912994 88.26075 29.369995L88.26075 29.369995L88.26075 29.369995C 88.3215 28.827744 88.251 28.330505 88.04775 27.877502L88.04775 27.877502L88.04775 27.877502C 87.846 27.418503 87.53925 27.045746 87.1275 26.759995L87.1275 26.759995L87.1275 26.759995C 86.70975 26.466751 86.2185 26.288239 85.65525 26.22525L85.65525 26.22525L85.65525 26.22525C 85.15425 26.169006 84.69825 26.220001 84.28575 26.377502L84.28575 26.377502L84.28575 26.377502C 83.8665 26.535004 83.527504 26.793 83.26875 27.15149L83.26875 27.15149L83.976 27.726746C 84.179245 27.482254 84.417 27.308243 84.68925 27.204742L84.68925 27.204742L84.68925 27.204742C 84.9615 27.102005 85.254 27.067505 85.5675 27.102753L85.5675 27.102753L85.5675 27.102753C 85.929 27.14325 86.247 27.260254 86.5215 27.453003L86.5215 27.453003L86.5215 27.453003C 86.7885 27.645004 86.988754 27.899994 87.12225 28.217987L87.12225 28.217987L87.12225 28.217987C 87.249 28.527756 87.29175 28.874237 87.24825 29.256744L87.24825 29.256744L87.24825 29.256744C 87.20475 29.645996 87.08625 29.981995 86.89275 30.262512L86.89275 30.262512L86.89275 30.262512C 86.6925 30.536255 86.441246 30.737244 86.138245 30.864746L86.138245 30.864746L86.138245 30.864746C 85.82774 30.992249 85.4925 31.035751 85.13025 30.994507L85.13025 30.994507L85.13025 30.994507C 84.8175 30.959991 84.53925 30.861755 84.297005 30.7005L84.297005 30.7005L84.297005 30.7005C 84.05475 30.539246 83.86125 30.31726 83.7165 30.033005L83.7165 30.033005L82.90125 30.427505C 83.073746 30.834747 83.34675 31.16475 83.720245 31.417496L83.720245 31.417496L83.720245 31.417496C 84.087 31.66275 84.5205 31.814255 85.0215 31.870499z" stroke="#FFFFFF" stroke-width="1" fill="#FFFFFF" fill-rule="nonzero" />
    <path id=""  transform="matrix(1 0 0 -1 0 161)"  d="M76.99425 25.617004L76.99425 25.617004L76.99425 25.617004L79.621506 31.769241L79.621506 31.769241L79.621506 31.769241C 79.85325 32.33925 80.128494 32.74124 80.448 32.975998L80.448 32.975998L80.448 32.975998C 80.76 33.210754 81.14024 33.33075 81.588 33.336L81.588 33.336L81.588 33.336C 81.861 33.338997 82.12725 33.296997 82.3875 33.208496L82.3875 33.208496L82.3875 33.208496C 82.64024 33.127502 82.85175 33.003754 83.022 32.837997L83.022 32.837997L82.6005 32.07675C 82.31025 32.34674 81.97575 32.479492 81.59775 32.475006L81.59775 32.475006L81.59775 32.475006C 81.35325 32.472 81.15075 32.403 80.991745 32.268738L80.991745 32.268738L80.991745 32.268738C 80.82525 32.140503 80.67675 31.918503 80.54775 31.602005L80.54775 31.602005L80.37375 31.211258L80.37375 31.211258L82.8945 25.685242L82.8945 25.685242L81.8445 25.673248L81.8445 25.673248L79.851 30.102753L79.851 30.102753L77.98125 25.62825L77.98125 25.62825L76.99425 25.617004z" stroke="#FFFFFF" stroke-width="1" fill="#FFFFFF" fill-rule="nonzero" />
    <path id=""  transform="matrix(1 0 0 -1 0 161)"  d="M70.789505 25.862991L70.789505 25.862991L70.789505 25.862991L71.38898 31.395752L71.38898 31.395752L72.39113 31.287003L72.39113 31.287003L71.8866 26.631744L71.8866 26.631744L74.26672 26.373749L74.26672 26.373749L74.462776 27.59851L74.462776 27.59851L74.462776 27.59851C 74.57828 28.339493 74.71192 28.955246 74.86365 29.445755L74.86365 29.445755L74.86365 29.445755C 75.01425 29.929504 75.2175 30.309006 75.472496 30.583496L75.472496 30.583496L75.472496 30.583496C 75.72825 30.85875 76.05375 30.975006 76.4505 30.932251L76.4505 30.932251L76.4505 30.932251C 76.631256 30.912003 76.833 30.85875 77.056496 30.770996L77.056496 30.770996L76.902 29.932495C 76.8135 29.963257 76.731 29.982758 76.6545 29.990997L76.6545 29.990997L76.6545 29.990997C 76.37625 30.020996 76.15425 29.921997 75.9885 29.693253L75.9885 29.693253L75.9885 29.693253C 75.8235 29.465256 75.70125 29.186249 75.62325 28.856262L75.62325 28.856262L75.62325 28.856262C 75.54525 28.526993 75.456 28.054504 75.354004 27.438751L75.354004 27.438751L75.03825 25.40326L75.03825 25.40326L70.789505 25.862991z" stroke="#FFFFFF" stroke-width="1" fill="#FFFFFF" fill-rule="nonzero" />
    <path id=""  transform="matrix(1 0 0 -1 0 161)"  d="M67.40768 31.049255C 66.96548 31.15651 66.6108 31.143738 66.343796 31.010254L66.343796 31.010254L66.343796 31.010254C 66.0699 30.878998 65.89193 30.632248 65.80995 30.270004L65.80995 30.270004L65.80995 30.270004C 65.729546 29.915253 65.7834 29.630249 65.97157 29.415741L65.97157 29.415741L65.97157 29.415741C 66.15292 29.201996 66.47153 29.040009 66.927376 28.929749L66.927376 28.929749L68.21303 28.617004L68.21303 28.617004L68.69565 30.74701L68.69565 30.74701L67.40768 31.049255zM66.5271 28.256256C 65.83913 28.419006 65.349 28.694992 65.0568 29.084259L65.0568 29.084259L65.0568 29.084259C 64.7646 29.47351 64.68188 29.948242 64.8087 30.507751L64.8087 30.507751L64.8087 30.507751C 64.94175 31.095001 65.24257 31.503754 65.71125 31.735504L65.71125 31.735504L65.71125 31.735504C 66.1716 31.961258 66.7662 31.98825 67.495125 31.81575L67.495125 31.81575L69.8481 31.272003L69.8481 31.272003L68.618324 25.844254L68.618324 25.844254L67.63522 26.067001L67.63522 26.067001L68.050575 27.899994L68.050575 27.899994L66.5271 28.256256z" stroke="#FFFFFF" stroke-width="1" fill="#FFFFFF" fill-rule="nonzero" />
    <path id=""  transform="matrix(1 0 0 -1 0 161)"  d="M58.20038 29.358002L58.20038 29.358002L58.20038 29.358002L60.137848 28.729492L60.137848 28.729492L61.583473 33.183746L61.583473 33.183746L62.542202 32.872498L62.542202 32.872498L61.09665 28.418259L61.09665 28.418259L63.034126 27.78975L63.034126 27.78975L62.76188 26.9505L62.76188 26.9505L57.928047 28.5195L57.928047 28.5195L58.20038 29.358002z" stroke="#FFFFFF" stroke-width="1" fill="#FFFFFF" fill-rule="nonzero" />
    <path id=""  transform="matrix(1 0 0 -1 0 161)"  d="M57.060898 33.819C 56.710953 33.9795 56.373676 34.041756 56.04915 34.005753L56.04915 34.005753L56.04915 34.005753C 55.721703 33.962997 55.43505 33.825005 55.1892 33.590996L55.1892 33.590996L54.86535 32.88449L54.86535 32.88449L56.2779 32.237244L56.2779 32.237244L56.2779 32.237244C 57.054146 31.880997 57.561897 31.964249 57.801147 32.485504L57.801147 32.485504L57.801147 32.485504C 57.917923 32.74051 57.91117 32.98575 57.781048 33.222748L57.781048 33.222748L57.781048 33.222748C 57.650925 33.459755 57.41085 33.65851 57.060898 33.819zM54.806923 29.457748C 54.107025 29.778748 53.65133 30.195755 53.439823 30.708755L53.439823 30.708755L53.439823 30.708755C 53.222023 31.223999 53.269196 31.822495 53.58143 32.503494L53.58143 32.503494L54.98198 35.557503L54.98198 35.557503L55.850548 35.15925L55.850548 35.15925L55.544174 34.491005L55.544174 34.491005L55.544174 34.491005C 55.804802 34.656754 56.1075 34.737 56.4522 34.733253L56.4522 34.733253L56.4522 34.733253C 56.787598 34.725746 57.149403 34.63275 57.53752 34.455L57.53752 34.455L57.53752 34.455C 58.103775 34.195496 58.496025 33.849747 58.714127 33.418503L58.714127 33.418503L58.714127 33.418503C 58.925926 32.99025 58.929672 32.55374 58.725372 32.108246L58.725372 32.108246L58.725372 32.108246C 58.52115 31.66275 58.195503 31.380753 57.74843 31.262253L57.74843 31.262253L57.74843 31.262253C 57.298428 31.137756 56.72032 31.237488 56.014053 31.560745L56.014053 31.560745L54.563324 32.225998L54.563324 32.225998L54.48015 32.045258L54.48015 32.045258L54.48015 32.045258C 54.29925 31.650757 54.275173 31.29599 54.407925 30.981003L54.407925 30.981003L54.407925 30.981003C 54.54075 30.666 54.8298 30.405746 55.275227 30.201752L55.275227 30.201752L55.275227 30.201752C 55.57425 30.064499 55.8903 29.981262 56.2233 29.951996L56.2233 29.951996L56.2233 29.951996C 56.553375 29.916 56.855026 29.935501 57.128098 30.010498L57.128098 30.010498L57.19477 29.147995C 56.837624 29.057999 56.452873 29.041504 56.040604 29.100006L56.040604 29.100006L56.040604 29.100006C 55.625397 29.151749 55.214172 29.270996 54.806923 29.457748z" stroke="#FFFFFF" stroke-width="1" fill="#FFFFFF" fill-rule="nonzero" />
    <path id=""  transform="matrix(1 0 0 -1 0 161)"  d="M47.62335 38.4075L47.62335 38.4075L47.62335 38.4075L48.798973 40.284744L48.798973 40.284744L49.608826 39.777756L49.608826 39.777756L48.901276 38.6475L48.901276 38.6475L53.1288 36.001495L53.1288 36.001495L50.1759 31.284744L50.1759 31.284744L49.321503 31.819489L49.321503 31.819489L51.806404 35.788498L51.806404 35.788498L49.22535 37.40399L49.22535 37.40399L46.740524 33.434998L46.740524 33.434998L45.886124 33.96975L45.886124 33.96975L48.37095 37.9395L48.37095 37.9395L47.62335 38.4075z" stroke="#FFFFFF" stroke-width="1" fill="#FFFFFF" fill-rule="nonzero" />
    <path id=""  transform="matrix(1 0 0 -1 0 161)"  d="M43.43175 35.109756L43.43175 35.109756L43.43175 35.109756L42.6549 35.751755L42.6549 35.751755L45.237526 38.875504L45.237526 38.875504L40.02495 37.92675L40.02495 37.92675L39.320923 38.50875L39.320923 38.50875L42.866997 42.797256L42.866997 42.797256L43.64385 42.15525L43.64385 42.15525L41.061226 39.03151L41.061226 39.03151L46.2657 39.987L46.2657 39.987L46.977825 39.398254L46.977825 39.398254L43.43175 35.109756z" stroke="#FFFFFF" stroke-width="1" fill="#FFFFFF" fill-rule="nonzero" />
    <path id=""  transform="matrix(1 0 0 -1 0 161)"  d="M37.3764 46.442253C 37.152153 46.7025 36.889877 46.882492 36.5895 46.98375L36.5895 46.98375L36.5895 46.98375C 36.284626 47.090256 35.968353 47.108253 35.640602 47.03775L35.640602 47.03775L35.640602 47.03775C 35.307602 46.962753 34.992825 46.796997 34.6962 46.541245L34.6962 46.541245L34.6962 46.541245C 34.4049 46.289246 34.200676 46.0065 34.083523 45.692253L34.083523 45.692253L34.083523 45.692253C 33.96105 45.373505 33.93045 45.055504 33.991726 44.739L33.991726 44.739L33.991726 44.739C 34.048424 44.426994 34.188976 44.14125 34.413223 43.881752L34.413223 43.881752L34.413223 43.881752C 34.637474 43.622246 34.902073 43.439255 35.207024 43.33275L35.207024 43.33275L35.207024 43.33275C 35.5119 43.226242 35.830875 43.210495 36.16387 43.285507L36.16387 43.285507L36.16387 43.285507C 36.486977 43.36125 36.79425 43.52475 37.085476 43.77675L37.085476 43.77675L37.085476 43.77675C 37.3821 44.0325 37.5939 44.317497 37.72095 44.630997L37.72095 44.630997L37.72095 44.630997C 37.8381 44.94525 37.866074 45.260254 37.8048 45.5775L37.8048 45.5775L37.8048 45.5775C 37.743523 45.894745 37.600723 46.182747 37.3764 46.442253zM33.745872 43.305008C 33.39345 43.712997 33.170326 44.15851 33.0765 44.641502L33.0765 44.641502L33.0765 44.641502C 32.97735 45.120003 33.01185 45.59401 33.18 46.0635L33.18 46.0635L33.18 46.0635C 33.3429 46.527756 33.6309 46.93875 34.044 47.295753L34.044 47.295753L34.044 47.295753C 34.4571 47.652756 34.907925 47.880753 35.396477 47.979004L35.396477 47.979004L35.396477 47.979004C 35.8797 48.072754 36.353626 48.038246 36.81825 47.875504L36.81825 47.875504L36.81825 47.875504C 37.2828 47.712753 37.691326 47.426994 38.043747 47.018997L38.043747 47.018997L38.043747 47.018997C 38.36415 46.6485 38.577976 46.245743 38.6853 45.8115L38.6853 45.8115L38.6853 45.8115C 38.792625 45.376495 38.7933 44.942253 38.68725 44.50875L38.68725 44.50875L38.68725 44.50875C 38.571297 44.07525 38.3565 43.681503 38.04285 43.32675L38.04285 43.32675L38.777473 42.477005L38.777473 42.477005L40.557 44.015244L40.557 44.015244L41.2161 43.252502L41.2161 43.252502L37.005676 39.613495L37.005676 39.613495L36.346577 40.37625L36.346577 40.37625L38.07045 41.865753L38.07045 41.865753L37.329 42.723747L37.329 42.723747L37.329 42.723747C 36.933674 42.474747 36.521175 42.331497 36.091576 42.29326L36.091576 42.29326L36.091576 42.29326C 35.652153 42.255753 35.23275 42.32325 34.83345 42.496506L34.83345 42.496506L34.83345 42.496506C 34.424248 42.669754 34.061775 42.93976 33.745872 43.305008z" stroke="#FFFFFF" stroke-width="1" fill="#FFFFFF" fill-rule="nonzero" />
    <path id=""  transform="matrix(1 0 0 -1 0 161)"  d="M15.241501 90.811424L15.241501 90.811424L15.241501 90.811424L22.542374 89.96348L22.542374 89.96348L22.423725 88.9413L22.423725 88.9413L16.030201 89.683876L16.030201 89.683876L15.53835 85.44975L15.53835 85.44975L21.931875 84.7065L21.931875 84.7065L21.81195 83.6745L21.81195 83.6745L14.511 84.522L14.511 84.522L15.241501 90.811424z" stroke="#FFFFFF" stroke-width="1" fill="#FFFFFF" fill-rule="nonzero" />
    <path id=""  transform="matrix(1 0 0 -1 0 161)"  d="M22.2027 94.4211C 22.284225 94.76865 22.278599 95.09715 22.185825 95.406525L22.185825 95.406525L22.185825 95.406525C 22.0878 95.724304 21.9141 95.995125 21.66465 96.219L21.66465 96.219L21.66465 96.219C 21.408375 96.44452 21.092773 96.60127 20.718 96.68918L20.718 96.68918L20.718 96.68918C 20.343151 96.77708 19.994251 96.77625 19.671225 96.68671L19.671225 96.68671L19.671225 96.68671C 19.34145 96.598724 19.065374 96.43335 18.843075 96.19073L18.843075 96.19073L18.843075 96.19073C 18.622349 95.954926 18.471226 95.66318 18.3897 95.31563L18.3897 95.31563L18.3897 95.31563C 18.308174 94.96808 18.312975 94.6362 18.404175 94.32L18.404175 94.32L18.404175 94.32C 18.497025 94.01063 18.670725 93.7398 18.925425 93.50752L18.925425 93.50752L18.925425 93.50752C 19.174875 93.28357 19.487026 93.12773 19.861801 93.03975L19.861801 93.03975L19.861801 93.03975C 20.23665 92.95185 20.588924 92.95185 20.918776 93.039825L20.918776 93.039825L20.918776 93.039825C 21.243374 93.13628 21.519451 93.301575 21.746925 93.5358L21.746925 93.5358L21.746925 93.5358C 21.969225 93.77843 22.121174 94.07355 22.2027 94.4211zM23.061375 94.21965C 22.935074 93.681305 22.702274 93.22537 22.36305 92.85202L22.36305 92.85202L22.36305 92.85202C 22.023827 92.4786 21.61755 92.21805 21.1443 92.07022L21.1443 92.07022L21.1443 92.07022C 20.6658 91.9308 20.160751 91.92345 19.62915 92.04818L19.62915 92.04818L19.62915 92.04818C 19.097624 92.1729 18.651976 92.4033 18.2922 92.739296L18.2922 92.739296L18.2922 92.739296C 17.92725 93.08378 17.679226 93.49785 17.548275 93.9816L17.548275 93.9816L17.548275 93.9816C 17.4105 94.46685 17.404726 94.97872 17.531025 95.517075L17.531025 95.517075L17.531025 95.517075C 17.657326 96.0555 17.8893 96.50797 18.226952 96.8745L18.226952 96.8745L18.226952 96.8745C 18.559425 97.2495 18.964876 97.506676 19.443375 97.6461L19.443375 97.6461L19.443375 97.6461C 19.916626 97.79392 20.41905 97.80548 20.950575 97.68075L20.950575 97.68075L20.950575 97.68075C 21.482176 97.55602 21.93045 97.32143 22.295399 96.97702L22.295399 96.97702L22.295399 96.97702C 22.655174 96.640945 22.90395 96.23025 23.041725 95.74492L23.041725 95.74492L23.041725 95.74492C 23.181149 95.2665 23.187675 94.75807 23.061375 94.21965z" stroke="#FFFFFF" stroke-width="1" fill="#FFFFFF" fill-rule="nonzero" />
    <path id=""  transform="matrix(1 0 0 -1 0 161)"  d="M19.985325 104.502075L19.985325 104.502075L19.985325 104.502075L25.21725 102.60585L25.21725 102.60585L24.873825 101.65815L24.873825 101.65815L20.471025 103.253845L20.471025 103.253845L19.655325 101.0031L19.655325 101.0031L20.7987 100.521675L20.7987 100.521675L20.7987 100.521675C 21.49095 100.2336 22.05735 99.9576 22.49775 99.693756L22.49775 99.693756L22.49775 99.693756C 22.931625 99.43223 23.251875 99.1449 23.458574 98.83178L23.458574 98.83178L23.458574 98.83178C 23.6652 98.51858 23.7006 98.17448 23.564625 97.799324L23.564625 97.799324L23.564625 97.799324C 23.5026 97.62825 23.402626 97.4448 23.2647 97.24912L23.2647 97.24912L22.486574 97.598175C 22.537275 97.676544 22.575825 97.75192 22.602 97.8243L22.602 97.8243L22.602 97.8243C 22.697475 98.087555 22.653824 98.32673 22.471199 98.541824L22.471199 98.541824L22.471199 98.541824C 22.288574 98.75693 22.046474 98.9415 21.7449 99.095474L21.7449 99.095474L21.7449 99.095474C 21.443249 99.24945 21.005625 99.44903 20.431799 99.6942L20.431799 99.6942L18.529125 100.48433L18.529125 100.48433L19.985325 104.502075z" stroke="#FFFFFF" stroke-width="1" fill="#FFFFFF" fill-rule="nonzero" />
    <path id=""  transform="matrix(1 0 0 -1 0 161)"  d="M22.70895 111.0951L22.70895 111.0951L22.70895 111.0951L27.0357 105.992775L27.0357 105.992775L27.0357 105.992775C 27.441677 105.53093 27.67815 105.104706 27.745274 104.714096L27.745274 104.714096L27.745274 104.714096C 27.815327 104.3298 27.752548 103.936195 27.556725 103.53322L27.556725 103.53322L27.556725 103.53322C 27.437477 103.287674 27.280273 103.0683 27.085276 102.8751L27.085276 102.8751L27.085276 102.8751C 26.899574 102.685196 26.69445 102.55132 26.469902 102.4737L26.469902 102.4737L25.97805 103.1913C 26.349075 103.330124 26.617123 103.56952 26.78235 103.9095L26.78235 103.9095L26.78235 103.9095C 26.889376 104.12985 26.91825 104.3415 26.869051 104.54445L26.869051 104.54445L26.869051 104.54445C 26.829075 104.750626 26.696552 104.982376 26.471325 105.239624L26.471325 105.239624L26.199902 105.57L26.199902 105.57L20.13015 105.78742L20.13015 105.78742L20.589 106.73183L20.589 106.73183L25.44225 106.53345L25.44225 106.53345L22.277626 110.20732L22.277626 110.20732L22.70895 111.0951z" stroke="#FFFFFF" stroke-width="1" fill="#FFFFFF" fill-rule="nonzero" />
    <path id=""  transform="matrix(1 0 0 -1 0 161)"  d="M25.2948 115.901855L25.2948 115.901855L25.2948 115.901855L29.989948 112.914444L29.989948 112.914444L29.448824 112.06395L29.448824 112.06395L27.553051 113.27017L27.553051 113.27017L27.553051 113.27017C 27.466124 112.61198 27.26295 112.03185 26.943527 111.52988L26.943527 111.52988L26.943527 111.52988C 26.571526 110.945175 26.148224 110.57985 25.673624 110.433754L25.673624 110.433754L25.673624 110.433754C 25.1991 110.28773 24.690075 110.38755 24.146776 110.73323L24.146776 110.73323L22.623075 111.70274L22.623075 111.70274L23.164125 112.55318L23.164125 112.55318L24.634724 111.61748L24.634724 111.61748L24.634724 111.61748C 24.959549 111.41085 25.268549 111.35528 25.56165 111.4509L25.56165 111.4509L25.56165 111.4509C 25.858501 111.552376 26.123474 111.78615 26.356424 112.152374L26.356424 112.152374L26.356424 112.152374C 26.61945 112.56577 26.799826 113.07742 26.897476 113.687325L26.897476 113.687325L24.753677 115.051346L24.753677 115.051346L25.2948 115.901855z" stroke="#FFFFFF" stroke-width="1" fill="#FFFFFF" fill-rule="nonzero" />
    <path id=""  transform="matrix(1 0 0 -1 0 161)"  d="M26.503876 118.43715L26.503876 118.43715L26.503876 118.43715L27.1518 119.209274L27.1518 119.209274L30.2565 116.604004L30.2565 116.604004L29.345402 121.823395L29.345402 121.823395L29.932575 122.52315L29.932575 122.52315L34.195503 118.94595L34.195503 118.94595L33.547573 118.17375L33.547573 118.17375L30.442875 120.77902L30.442875 120.77902L31.3608 115.567726L31.3608 115.567726L30.7668 114.85995L30.7668 114.85995L26.503876 118.43715z" stroke="#FFFFFF" stroke-width="1" fill="#FFFFFF" fill-rule="nonzero" />
    <path id=""  transform="matrix(1 0 0 -1 0 161)"  d="M34.6857 126.4995L34.6857 126.4995L34.6857 126.4995L33.245323 125.05913L33.245323 125.05913L36.556725 121.74773L36.556725 121.74773L35.844 121.03493L35.844 121.03493L32.5326 124.34633L32.5326 124.34633L31.092224 122.905945L31.092224 122.905945L30.468525 123.52965L30.468525 123.52965L34.062073 127.12312L34.062073 127.12312L34.6857 126.4995z" stroke="#FFFFFF" stroke-width="1" fill="#FFFFFF" fill-rule="nonzero" />
    <path id=""  transform="matrix(1 0 0 -1 0 161)"  d="M39.650772 125.96475C 40.011974 126.2415 40.2246 126.525604 40.288574 126.81712L40.288574 126.81712L40.288574 126.81712C 40.3581 127.113 40.277775 127.40648 40.047676 127.69748L40.047676 127.69748L40.047676 127.69748C 39.821926 127.983 39.566326 128.12003 39.28095 128.10855L39.28095 128.10855L39.28095 128.10855C 39.00105 128.10143 38.67495 127.9551 38.302727 127.66972L38.302727 127.66972L37.2519 126.86565L37.2519 126.86565L38.606476 125.15242L38.606476 125.15242L39.650772 125.96475zM38.0298 128.40427C 38.5887 128.83733 39.111374 129.0453 39.59775 129.02835L39.59775 129.02835L39.59775 129.02835C 40.084126 129.01132 40.505325 128.77771 40.86135 128.3274L40.86135 128.3274L40.86135 128.3274C 41.2347 127.855194 41.364227 127.364174 41.249775 126.85425L41.249775 126.85425L41.249775 126.85425C 41.136528 126.354225 40.78395 125.87468 40.19205 125.4156L40.19205 125.4156L38.2911 123.926025L38.2911 123.926025L34.8396 128.2914L34.8396 128.2914L35.630325 128.91652L35.630325 128.91652L36.79605 127.44218L36.79605 127.44218L38.0298 128.40427z" stroke="#FFFFFF" stroke-width="1" fill="#FFFFFF" fill-rule="nonzero" />
    <path id=""  transform="matrix(1 0 0 -1 0 161)"  d="M46.15125 132.9015L46.15125 132.9015L46.15125 132.9015L45.137848 132.34732L45.137848 132.34732L46.2663 130.2837L46.2663 130.2837L45.3819 129.8001L45.3819 129.8001L42.7119 134.68275L42.7119 134.68275L43.5963 135.16643L43.5963 135.16643L44.72475 133.1028L44.72475 133.1028L45.7566 133.66702L45.7566 133.66702L46.212677 136.59712L46.212677 136.59712L47.161575 137.11597L47.161575 137.11597L46.594498 133.75418L46.594498 133.75418L49.9605 132.30383L49.9605 132.30383L48.9195 131.73457L48.9195 131.73457L46.15125 132.9015z" stroke="#FFFFFF" stroke-width="1" fill="#FFFFFF" fill-rule="nonzero" />
    <path id=""  transform="matrix(1 0 0 -1 0 161)"  d="M52.512074 134.6817C 52.8429 134.81587 53.107803 135.01013 53.306774 135.26453L53.306774 135.26453L53.306774 135.26453C 53.50965 135.52808 53.6304 135.82628 53.669174 136.15927L53.669174 136.15927L53.669174 136.15927C 53.705254 136.49872 53.650948 136.8468 53.506348 137.20358L53.506348 137.20358L53.506348 137.20358C 53.36168 137.56042 53.159477 137.84476 52.899822 138.0567L52.899822 138.0567L52.899822 138.0567C 52.63755 138.27518 52.343178 138.40508 52.0167 138.44647L52.0167 138.44647L52.0167 138.44647C 51.69668 138.49042 51.371326 138.44534 51.04043 138.31125L51.04043 138.31125L51.04043 138.31125C 50.709602 138.17708 50.441475 137.98155 50.235977 137.72446L50.235977 137.72446L50.235977 137.72446C 50.037003 137.47005 49.916176 137.17184 49.873573 136.82977L49.873573 136.82977L49.873573 136.82977C 49.834877 136.49678 49.887825 136.15192 50.0325 135.79515L50.0325 135.79515L50.0325 135.79515C 50.177177 135.43837 50.380653 135.15076 50.64293 134.93228L50.64293 134.93228L50.64293 134.93228C 50.9091 134.72295 51.203476 134.59305 51.52605 134.54257L51.52605 134.54257L51.52605 134.54257C 51.852528 134.50117 52.181175 134.5476 52.512074 134.6817zM52.843426 133.86435C 52.330948 133.6566 51.824326 133.58333 51.323627 133.64468L51.323627 133.64468L51.323627 133.64468C 50.822853 133.70602 50.375473 133.88722 49.9815 134.18828L49.9815 134.18828L49.9815 134.18828C 49.591427 134.4984 49.293747 134.90648 49.088623 135.41243L49.088623 135.41243L49.088623 135.41243C 48.8835 135.91846 48.8142 136.41533 48.8808 136.90312L48.8808 136.90312L48.8808 136.90312C 48.9513 137.4 49.14615 137.84152 49.465427 138.22784L49.465427 138.22784L49.465427 138.22784C 49.781998 138.62054 50.1966 138.92085 50.709076 139.1286L50.709076 139.1286L50.709076 139.1286C 51.22155 139.33643 51.724876 139.40828 52.219128 139.3443L52.219128 139.3443L52.219128 139.3443C 52.717278 139.28947 53.161346 139.107 53.5515 138.7968L53.5515 138.7968L53.5515 138.7968C 53.945473 138.49582 54.245026 138.09225 54.450226 137.5863L54.450226 137.5863L54.450226 137.5863C 54.65535 137.08028 54.722702 136.5789 54.6522 136.08195L54.6522 136.08195L54.6522 136.08195C 54.5856 135.59422 54.393974 135.15398 54.0774 134.7612L54.0774 134.7612L54.0774 134.7612C 53.767197 134.37105 53.355896 134.0721 52.843426 133.86435z" stroke="#FFFFFF" stroke-width="1" fill="#FFFFFF" fill-rule="nonzero" />
    <path id=""  transform="matrix(1 0 0 -1 0 161)"  d="M55.050003 141.20654L55.050003 141.20654L55.050003 141.20654L56.025826 141.45915L56.025826 141.45915L56.61773 139.17203L56.61773 139.17203L59.68763 139.96649L59.68763 139.96649L59.09565 142.25363L59.09565 142.25363L60.07155 142.50623L60.07155 142.50623L61.465874 137.11868L61.465874 137.11868L60.489975 136.86615L60.489975 136.86615L59.905952 139.12283L59.905952 139.12283L56.83613 138.32828L56.83613 138.32828L57.42015 136.07167L57.42015 136.07167L56.44433 135.81908L56.44433 135.81908L55.050003 141.20654z" stroke="#FFFFFF" stroke-width="1" fill="#FFFFFF" fill-rule="nonzero" />
    <path id=""  transform="matrix(1 0 0 -1 0 161)"  d="M65.580376 138.10718C 65.01975 138.02235 64.49962 138.0675 64.020004 138.2427L64.020004 138.2427L64.020004 138.2427C 63.547348 138.41895 63.154427 138.69937 62.841373 139.08383L62.841373 139.08383L62.841373 139.08383C 62.527275 139.47525 62.32943 139.94086 62.247677 140.4807L62.247677 140.4807L62.247677 140.4807C 62.166 141.02063 62.217827 141.52051 62.403076 141.98041L62.403076 141.98041L62.403076 141.98041C 62.587273 142.4472 62.879623 142.83127 63.28005 143.13255L63.28005 143.13255L63.28005 143.13255C 63.686325 143.44185 64.169846 143.63887 64.7304 143.7237L64.7304 143.7237L64.7304 143.7237C 65.228775 143.79915 65.686874 143.76578 66.10485 143.62372L66.10485 143.62372L66.10485 143.62372C 66.529724 143.48273 66.87825 143.23807 67.15042 142.88992L67.15042 142.88992L66.46643 142.2873C 66.25357 142.52408 66.00915 142.68892 65.733154 142.78162L65.733154 142.78162L65.733154 142.78162C 65.45722 142.8744 65.16345 142.8972 64.85205 142.8501L64.85205 142.8501L64.85205 142.8501C 64.49213 142.79558 64.17885 142.66681 63.9123 142.46362L63.9123 142.46362L63.9123 142.46362C 63.652576 142.2615 63.462227 141.99907 63.341103 141.67627L63.341103 141.67627L63.341103 141.67627C 63.2259 141.3615 63.197174 141.0138 63.254776 140.6331L63.254776 140.6331L63.254776 140.6331C 63.313423 140.24557 63.444824 139.91498 63.64905 139.64145L63.64905 139.64145L63.64905 139.64145C 63.859123 139.37587 64.1181 139.185 64.42597 139.06876L64.42597 139.06876L64.42597 139.06876C 64.74075 138.95355 65.078094 138.92317 65.43803 138.97763L65.43803 138.97763L65.43803 138.97763C 65.7495 139.0248 66.02332 139.13347 66.2595 139.30373L66.2595 139.30373L66.2595 139.30373C 66.495674 139.47397 66.680405 139.7037 66.8136 139.9929L66.8136 139.9929L67.6437 139.63005C 67.4868 139.21687 67.226776 138.87668 66.8637 138.6093L66.8637 138.6093L66.8637 138.6093C 66.50648 138.34995 66.078674 138.18256 65.580376 138.10718z" stroke="#FFFFFF" stroke-width="1" fill="#FFFFFF" fill-rule="nonzero" />
    <path id=""  transform="matrix(1 0 0 -1 0 161)"  d="M73.037254 144.65363L73.037254 144.65363L73.037254 144.65363L70.6491 138.40456L70.6491 138.40456L70.6491 138.40456C 70.43985 137.8263 70.1802 137.4138 69.870224 137.1669L69.870224 137.1669L69.870224 137.1669C 69.567154 136.92038 69.191925 136.7859 68.74448 136.76347L68.74448 136.76347L68.74448 136.76347C 68.47185 136.74976 68.20387 136.78185 67.940704 136.85977L67.940704 136.85977L67.940704 136.85977C 67.6848 136.93103 67.46872 137.04637 67.29247 137.20567L67.29247 137.20567L67.68458 137.98238C 67.98488 137.72408 68.3238 137.60445 68.70135 137.62335L68.70135 137.62335L68.70135 137.62335C 68.946 137.63565 69.145424 137.71222 69.299545 137.85315L69.299545 137.85315L69.299545 137.85315C 69.46103 137.9874 69.600296 138.21518 69.7173 138.53647L69.7173 138.53647L69.876144 138.93346L69.876144 138.93346L67.14368 144.35776L67.14368 144.35776L68.1924 144.4104L68.1924 144.4104L70.35563 140.06137L70.35563 140.06137L72.05153 144.60413L72.05153 144.60413L73.037254 144.65363z" stroke="#FFFFFF" stroke-width="1" fill="#FFFFFF" fill-rule="nonzero" />
    <path id=""  transform="matrix(1 0 0 -1 0 161)"  d="M79.4085 144.67763L79.4085 144.67763L79.4085 144.67763L79.02225 139.12605L79.02225 139.12605L78.0165 139.19603L78.0165 139.19603L78.342 143.8677L78.342 143.8677L75.953255 144.03383L75.953255 144.03383L75.80475 142.80217L75.80475 142.80217L75.80475 142.80217C 75.71775 142.05743 75.608246 141.43703 75.4755 140.94106L75.4755 140.94106L75.4755 140.94106C 75.34275 140.45206 75.1545 140.0652 74.9103 139.78043L74.9103 139.78043L74.9103 139.78043C 74.665955 139.49573 74.34473 139.36717 73.9467 139.39485L73.9467 139.39485L73.9467 139.39485C 73.76512 139.40753 73.561356 139.45328 73.33522 139.5321L73.33522 139.5321L73.4571 140.37622C 73.546425 140.34892 73.629524 140.33266 73.70633 140.32733L73.70633 140.32733L73.70633 140.32733C 73.98563 140.30789 74.20365 140.41553 74.36033 140.6502L74.36033 140.6502L74.36033 140.6502C 74.51693 140.88487 74.62792 141.16838 74.6931 141.5007L74.6931 141.5007L74.6931 141.5007C 74.758354 141.83295 74.82997 142.3086 74.90813 142.92764L74.90813 142.92764L75.1455 144.97418L75.1455 144.97418L79.4085 144.67763z" stroke="#FFFFFF" stroke-width="1" fill="#FFFFFF" fill-rule="nonzero" />
    <path id=""  transform="matrix(1 0 0 -1 0 161)"  d="M82.905 139.66898C 83.35125 139.5786 83.7045 139.60507 83.967 139.7484L83.967 139.7484L83.967 139.7484C 84.235504 139.89053 84.4035 140.14388 84.47175 140.5086L84.47175 140.5086L84.47175 140.5086C 84.5385 140.86642 84.474 141.1491 84.277504 141.35663L84.277504 141.35663L84.277504 141.35663C 84.0885 141.56296 83.76375 141.71257 83.304 141.80557L83.304 141.80557L82.00725 142.06912L82.00725 142.06912L81.60675 139.92224L81.60675 139.92224L82.905 139.66898zM83.67825 142.494C 84.372 142.35735 84.87225 142.1001 85.179 141.72232L85.179 141.72232L85.179 141.72232C 85.48575 141.34462 85.587 140.87363 85.48125 140.30933L85.48125 140.30933L85.48125 140.30933C 85.371 139.71758 85.086 139.29727 84.62625 139.04843L84.62625 139.04843L84.62625 139.04843C 84.17475 138.80513 83.5815 138.7557 82.8465 138.90007L82.8465 138.90007L80.475006 139.35382L80.475006 139.35382L81.496506 144.82425L81.496506 144.82425L82.48725 144.63914L82.48725 144.63914L82.14225 142.7916L82.14225 142.7916L83.67825 142.494z" stroke="#FFFFFF" stroke-width="1" fill="#FFFFFF" fill-rule="nonzero" />
    <path id=""  transform="matrix(1 0 0 -1 0 161)"  d="M92.1045 141.72502L92.1045 141.72502L92.1045 141.72502L90.14475 142.28018L90.14475 142.28018L88.868996 137.7744L88.868996 137.7744L87.8985 138.04913L87.8985 138.04913L89.175 142.5549L89.175 142.5549L87.215256 143.10997L87.215256 143.10997L87.45525 143.9586L87.45525 143.9586L92.345245 142.57365L92.345245 142.57365L92.1045 141.72502z" stroke="#FFFFFF" stroke-width="1" fill="#FFFFFF" fill-rule="nonzero" />
    <path id=""  transform="matrix(1 0 0 -1 0 161)"  d="M93.4035 137.35545C 93.759 137.20815 94.09875 137.1585 94.42125 137.20657L94.42125 137.20657L94.42125 137.20657C 94.74675 137.2611 95.028 137.40974 95.265 137.6526L95.265 137.6526L95.56275 138.37042L95.56275 138.37042L94.12725 138.9651L94.12725 138.9651L94.12725 138.9651C 93.33825 139.29187 92.833496 139.1901 92.613754 138.65977L92.613754 138.65977L92.613754 138.65977C 92.5065 138.4011 92.522995 138.15585 92.66175 137.9241L92.66175 137.9241L92.66175 137.9241C 92.8005 137.69235 93.048004 137.50275 93.4035 137.35545zM95.493 141.79733C 96.20474 141.50272 96.67575 141.10306 96.90599 140.59845L96.90599 140.59845L96.90599 140.59845C 97.143005 140.09122 97.11825 139.49161 96.83174 138.79958L96.83174 138.79958L95.5455 135.69533L95.5455 135.69533L94.66275 136.06094L94.66275 136.06094L94.944 136.74L94.944 136.74L94.944 136.74C 94.68975 136.56503 94.390495 136.47308 94.0455 136.4643L94.0455 136.4643L94.0455 136.4643C 93.71025 136.45927 93.345 136.53848 92.9505 136.7019L92.9505 136.7019L92.9505 136.7019C 92.37525 136.94025 91.970245 137.27084 91.73625 137.69354L91.73625 137.69354L91.73625 137.69354C 91.509 138.11362 91.488754 138.54997 91.676254 139.00267L91.676254 139.00267L91.676254 139.00267C 91.863754 139.45544 92.17875 139.7493 92.621254 139.88431L92.621254 139.88431L92.621254 139.88431C 93.065994 140.02576 93.64725 139.94783 94.365 139.65053L94.365 139.65053L95.840256 139.0398L95.840256 139.0398L95.916 139.22415L95.916 139.22415L95.916 139.22415C 96.082504 139.62509 96.092995 139.98053 95.949 140.29034L95.949 140.29034L95.949 140.29034C 95.804245 140.60017 95.50575 140.84888 95.05275 141.03638L95.05275 141.03638L95.05275 141.03638C 94.749 141.16223 94.43025 141.23378 94.0965 141.2508L94.0965 141.2508L94.0965 141.2508C 93.765 141.27435 93.46425 141.24353 93.19425 141.1584L93.19425 141.1584L93.095245 142.01761C 93.44925 142.12117 93.83325 142.15163 94.24725 142.10887L94.24725 142.10887L94.24725 142.10887C 94.66425 142.07265 95.079 141.96878 95.493 141.79733z" stroke="#FFFFFF" stroke-width="1" fill="#FFFFFF" fill-rule="nonzero" />
    <path id=""  transform="matrix(1 0 0 -1 0 161)"  d="M103.07475 133.1349L103.07475 133.1349L103.07475 133.1349L101.96849 131.21506L101.96849 131.21506L101.1405 131.69197L101.1405 131.69197L101.8065 132.8475L101.8065 132.8475L97.48425 135.33667L97.48425 135.33667L100.261505 140.15903L100.261505 140.15903L101.135254 139.656L101.135254 139.656L98.79825 135.5979L98.79825 135.5979L101.436745 134.07817L101.436745 134.07817L103.77376 138.13628L103.77376 138.13628L104.6475 137.63318L104.6475 137.63318L102.3105 133.57515L102.3105 133.57515L103.07475 133.1349z" stroke="#FFFFFF" stroke-width="1" fill="#FFFFFF" fill-rule="nonzero" />
    <path id=""  transform="matrix(1 0 0 -1 0 161)"  d="M107.090996 136.64655L107.090996 136.64655L107.090996 136.64655L107.892746 136.0359L107.892746 136.0359L105.43724 132.81128L105.43724 132.81128L110.60776 133.96852L110.60776 133.96852L111.3345 133.4151L111.3345 133.4151L107.96326 128.98755L107.96326 128.98755L107.1615 129.59827L107.1615 129.59827L109.617004 132.82283L109.617004 132.82283L104.45474 131.6592L104.45474 131.6592L103.71975 132.219L103.71975 132.219L107.090996 136.64655z" stroke="#FFFFFF" stroke-width="1" fill="#FFFFFF" fill-rule="nonzero" />
    <path id=""  transform="matrix(1 0 0 -1 0 161)"  d="M113.66174 125.53965C 113.8965 125.2893 114.16574 125.1195 114.469505 125.03033L114.469505 125.03033L114.469505 125.03033C 114.778496 124.93605 115.09575 124.93065 115.419754 125.01413L115.419754 125.01413L115.419754 125.01413C 115.74974 125.1024 116.058 125.28045 116.34375 125.54842L116.34375 125.54842L116.34375 125.54842C 116.625 125.811676 116.81775 126.10245 116.922 126.420975L116.922 126.420975L116.922 126.420975C 117.03151 126.744225 117.0495 127.063126 116.976 127.377525L116.976 127.377525L116.976 127.377525C 116.90625 127.68683 116.75475 127.96665 116.520004 128.21701L116.520004 128.21701L116.520004 128.21701C 116.286 128.46735 116.01375 128.63962 115.705505 128.7339L115.705505 128.7339L115.705505 128.7339C 115.3965 128.82825 115.077 128.83125 114.747 128.74298L114.747 128.74298L114.747 128.74298C 114.427505 128.6544 114.126755 128.47852 113.84625 128.21535L113.84625 128.21535L113.84625 128.21535C 113.559746 127.94737 113.3595 127.654274 113.2455 127.33613L113.2455 127.33613L113.2455 127.33613C 113.1405 127.0176 113.1255 126.70117 113.199005 126.38678L113.199005 126.38678L113.199005 126.38678C 113.273254 126.072296 113.426994 125.789925 113.66174 125.53965zM117.164246 128.81992C 117.5325 128.42654 117.773254 127.99028 117.886505 127.51118L117.886505 127.51118L117.886505 127.51118C 118.00426 127.036804 117.98925 126.5619 117.84 126.086395L117.84 126.086395L117.84 126.086395C 117.69525 125.6157 117.4245 125.19368 117.0255 124.820404L117.0255 124.820404L117.0255 124.820404C 116.62726 124.447205 116.1855 124.201645 115.70175 124.08375L115.70175 124.08375L115.70175 124.08375C 115.2225 123.97065 114.74774 123.986176 114.27675 124.130325L114.27675 124.130325L114.27675 124.130325C 113.8065 124.27455 113.386505 124.543274 113.01825 124.936646L113.01825 124.936646L113.01825 124.936646C 112.683 125.29433 112.45351 125.68807 112.329 126.118126L112.329 126.118126L112.329 126.118126C 112.20375 126.548096 112.1865 126.98198 112.274994 127.41983L112.274994 127.41983L112.274994 127.41983C 112.373245 127.857376 112.57199 128.25945 112.87125 128.62605L112.87125 128.62605L112.10324 129.44603L112.10324 129.44603L110.386505 127.83818L110.386505 127.83818L109.69725 128.57385L109.69725 128.57385L113.75925 132.37814L113.75925 132.37814L114.4485 131.64247L114.4485 131.64247L112.785 130.08487L112.785 130.08487L113.5605 129.25725L113.5605 129.25725L113.5605 129.25725C 113.94525 129.522 114.351746 129.68198 114.78 129.73732L114.78 129.73732L114.78 129.73732C 115.217255 129.79237 115.63875 129.74146 116.04526 129.58455L116.04526 129.58455L116.04526 129.58455C 116.460754 129.42728 116.833496 129.17242 117.164246 128.81992z" stroke="#FFFFFF" stroke-width="1" fill="#FFFFFF" fill-rule="nonzero" />
    <path id=""  transform="matrix(1 0 0 -1 0 161)"  d="M113.74051 89.5776C 113.855255 88.60013 113.9325 87.611176 113.971504 86.61233L113.971504 86.61233L113.596504 86.59785C 113.61525 86.10899 113.625 85.617 113.625 85.123505L113.625 85.123505L113.625 85.123505C 113.625 84.62925 113.61525 84.138 113.596504 83.64825L113.596504 83.64825L113.971504 83.634C 113.9325 82.635 113.855255 81.6465 113.74051 80.6685L113.74051 80.6685L113.3685 80.712C 113.25375 79.731 113.100746 78.761246 112.911 77.804245L112.911 77.804245L113.27925 77.7315C 113.085754 76.75275 112.854004 75.78825 112.587 74.838L112.587 74.838L112.22624 74.94C 111.958496 73.9905 111.655495 73.05675 111.3165 72.14024L111.3165 72.14024L111.669 72.0105C 111.324005 71.07675 110.943756 70.16025 110.52899 69.2625L110.52899 69.2625L110.1885 69.41925C 109.776 68.526 109.329 67.651505 108.84975 66.79726L108.84975 66.79726L109.17675 66.6135C 108.69075 65.74725 108.171 64.90199 107.6205 64.07925L107.6205 64.07925L107.30925 64.28775C 106.76175 63.47101 106.1835 62.67675 105.576004 61.90651L105.576004 61.90651L105.87 61.673996C 105.25575 60.8955 104.61075 60.141006 103.938 59.413498L103.938 59.413498L103.66275 59.668503C 102.996 58.94699 102.30075 58.252502 101.58 57.585754L101.58 57.585754L101.83426 57.3105C 101.10675 56.63775 100.353 55.992752 99.573746 55.377754L99.573746 55.377754L99.34125 55.6725C 98.57175 55.064255 97.7775 54.485992 96.96 53.939255L96.96 53.939255L97.16925 53.628C 96.346504 53.07675 95.50125 52.557747 94.635 52.071L94.635 52.071L94.45125 52.398758C 93.597 51.918755 92.722496 51.472504 91.82851 51.05925L91.82851 51.05925L91.986 50.71875C 91.08825 50.30475 90.171745 49.9245 89.238 49.5795L89.238 49.5795L89.108246 49.931244C 88.190994 49.592995 87.25725 49.289246 86.3085 49.022255L86.3085 49.022255L86.409744 48.6615C 85.46025 48.393745 84.495 48.16275 83.517 47.969254L83.517 47.969254L83.44425 48.336754C 82.48725 48.14775 81.5175 47.99475 80.53575 47.879997L80.53575 47.879997L80.579254 47.507248C 79.602005 47.3925 78.61275 47.315254 77.6145 47.276993L77.6145 47.276993L77.5995 47.651253C 77.110504 47.632492 76.6185 47.623505 76.125 47.623505L76.125 47.623505L76.125 47.623505C 75.6315 47.623505 75.139496 47.632492 74.650345 47.651253L74.650345 47.651253L74.63588 47.276993C 73.637024 47.315254 72.64807 47.3925 71.670525 47.507248L71.670525 47.507248L71.71417 47.879997C 70.73265 47.99475 69.76275 48.14775 68.80605 48.336754L68.80605 48.336754L68.73323 47.969254C 67.754776 48.16275 66.789825 48.393745 65.83995 48.6615L65.83995 48.6615L65.941574 49.022255C 64.9926 49.289246 64.05893 49.592995 63.14205 49.931244L63.14205 49.931244L63.012222 49.5795C 62.078327 49.9245 61.16175 50.30475 60.26423 50.71875L60.26423 50.71875L60.421425 51.05925C 59.527725 51.472504 58.653 51.918755 57.7989 52.398758L57.7989 52.398758L57.61538 52.071C 56.748974 52.557747 55.90365 53.07675 55.081047 53.628L55.081047 53.628L55.289696 53.939255C 54.472652 54.485992 53.67832 55.064255 52.90845 55.6725L52.90845 55.6725L52.6761 55.377754C 51.897224 55.992752 51.143105 56.63775 50.415447 57.3105L50.415447 57.3105L50.67 57.585754C 49.9491 58.252502 49.254375 58.94699 48.587624 59.668503L48.587624 59.668503L48.312298 59.413498C 47.639324 60.141006 46.994553 60.8955 46.3797 61.673996L46.3797 61.673996L46.674076 61.90651C 46.066277 62.67675 45.488026 63.47101 44.941048 64.28775L44.941048 64.28775L44.629425 64.07925C 44.078777 64.90199 43.559475 65.74725 43.073174 66.6135L43.073174 66.6135L43.40025 66.79726C 42.920925 67.65075 42.474075 68.526 42.061348 69.41925L42.061348 69.41925L41.720924 69.2625C 41.3064 70.16025 40.926003 71.07675 40.581375 72.0105L40.581375 72.0105L40.933197 72.14024C 40.5948 73.05675 40.291275 73.9905 40.024124 74.94L40.024124 74.94L39.66315 74.838C 39.395775 75.78825 39.164474 76.75275 38.9709 77.7315L38.9709 77.7315L39.338776 77.804245C 39.149475 78.761246 38.996624 79.731 38.881653 80.712L38.881653 80.712L38.5092 80.6685C 38.394676 81.6465 38.317352 82.635 38.278725 83.634L38.278725 83.634L38.653423 83.64825C 38.634525 84.138 38.625 84.62925 38.625 85.123505L38.625 85.123505L38.625 85.123505C 38.625 85.617 38.634525 86.10899 38.653423 86.59785L38.653423 86.59785L38.278725 86.61233C 38.317352 87.611176 38.394676 88.60013 38.5092 89.5776L38.5092 89.5776L38.881653 89.53403C 38.996624 90.51547 39.149475 91.485374 39.338776 92.442154L39.338776 92.442154L38.9709 92.5149C 39.164474 93.49342 39.395775 94.458374 39.66315 95.40817L39.66315 95.40817L40.024124 95.30655C 40.291275 96.25552 40.5948 97.18928 40.933197 98.10615L40.933197 98.10615L40.581375 98.23598C 40.926003 99.169876 41.3064 100.08638 41.720924 100.98398L41.720924 100.98398L42.061348 100.826775C 42.474075 101.720474 42.920925 102.5952 43.40025 103.4493L43.40025 103.4493L43.073174 103.63283C 43.559475 104.49922 44.078777 105.34454 44.629425 106.167076L44.629425 106.167076L44.941048 105.958496C 45.488026 106.775475 46.066277 107.5698 46.674076 108.33975L46.674076 108.33975L46.3797 108.5721C 46.994553 109.350975 47.639324 110.1051 48.312298 110.83275L48.312298 110.83275L48.587624 110.578125C 49.254375 111.2991 49.9491 111.99383 50.67 112.660576L50.67 112.660576L50.415447 112.9359C 51.143105 113.60887 51.897224 114.25365 52.6761 114.86842L52.6761 114.86842L52.90845 114.57413C 53.67832 115.18193 54.472652 115.7601 55.289696 116.307076L55.289696 116.307076L55.081047 116.6187C 55.90365 117.169426 56.748974 117.68872 57.61538 118.17495L57.61538 118.17495L57.7989 117.847946C 58.652927 118.32727 59.52765 118.774124 60.421425 119.186844L60.421425 119.186844L60.264153 119.527275C 61.16175 119.94173 62.078327 120.32213 63.012146 120.666824L63.012146 120.666824L63.14205 120.315C 64.05893 120.65333 64.9926 120.956924 65.941574 121.224075L65.941574 121.224075L65.83995 121.58505C 66.789825 121.852425 67.754776 122.08365 68.73323 122.27722L68.73323 122.27722L68.80605 121.90935C 69.76275 122.09865 70.73265 122.25157 71.71417 122.36655L71.71417 122.36655L71.670525 122.739C 72.64807 122.85352 73.637024 122.93077 74.63588 122.969406L74.63588 122.969406L74.650345 122.594696C 75.139496 122.6136 75.6315 122.6232 76.125 122.6232L76.125 122.6232L76.125 122.6232C 76.6185 122.6232 77.110504 122.6136 77.5995 122.594696L77.5995 122.594696L77.6145 122.969406C 78.61275 122.93077 79.602005 122.85352 80.579254 122.739L80.579254 122.739L80.53575 122.36655C 81.5175 122.25157 82.48725 122.09865 83.44425 121.90935L83.44425 121.90935L83.517 122.27722C 84.495 122.08365 85.46025 121.852425 86.409744 121.58505L86.409744 121.58505L86.3085 121.224075C 87.25725 120.956924 88.190994 120.65333 89.108246 120.315L89.108246 120.315L89.238 120.666824C 90.171745 120.32213 91.08825 119.94173 91.986 119.527275L91.986 119.527275L91.82851 119.186844C 92.722496 118.774124 93.597 118.32727 94.45125 117.847946L94.45125 117.847946L94.635 118.17495C 95.50125 117.68872 96.346504 117.169426 97.16925 116.6187L97.16925 116.6187L96.96 116.307076C 97.7775 115.7601 98.57175 115.18193 99.34125 114.57413L99.34125 114.57413L99.573746 114.86842C 100.353 114.25365 101.10675 113.60887 101.83426 112.9359L101.83426 112.9359L101.58 112.660576C 102.30075 111.99383 102.996 111.2991 103.66275 110.578125L103.66275 110.578125L103.938 110.83275C 104.61075 110.1051 105.25575 109.350975 105.87 108.5721L105.87 108.5721L105.576004 108.33975C 106.1835 107.5698 106.76175 106.775475 107.30925 105.958496L107.30925 105.958496L107.6205 106.167145C 108.171 105.34454 108.69075 104.49922 109.17675 103.63283L109.17675 103.63283L108.84975 103.4493C 109.329 102.5952 109.776 101.720474 110.1885 100.826775L110.1885 100.826775L110.52899 100.98398C 110.943756 100.08638 111.324005 99.169876 111.669 98.23598L111.669 98.23598L111.3165 98.10615C 111.655495 97.18928 111.958496 96.25552 112.22624 95.30655L112.22624 95.30655L112.587 95.40817C 112.854004 94.458374 113.085754 93.49342 113.27925 92.5149L113.27925 92.5149L112.911 92.442154C 113.100746 91.485374 113.25375 90.51547 113.3685 89.53403L113.3685 89.53403L113.74051 89.5776z" stroke="#FFFFFF" stroke-width="1" stroke-dasharray="3,3" fill="none" />
	</g>
</g>
</svg>