<?xml version="1.0" standalone="no"?>
<!DOCTYPE svg PUBLIC "-//W3C//DTD SVG 1.0//EN" "http://www.w3.org/TR/2001/REC-SVG-20010904/DTD/svg10.dtd">
<svg xmlns="http://www.w3.org/2000/svg" xmlns:xlink="http://www.w3.org/1999/xlink" id="body_4" width="560" height="520">

<defs>
    <clipPath  id="1">

    <path id=""  clip-rule="evenodd" transform="matrix(1 0 0 1 0 0)"  d="M0 390L0 -0.75L0 -0.75L420 -0.75L420 -0.75L420 390L420 390L0 390z" />    </clipPath>
</defs>

<g transform="matrix(1.3333 0 0 1.3333 0 0)">
	<g clip-path="url(#1)" >
    <path id=""  transform="matrix(1 0 0 -1 0 390)"  d="M247.875 7.125L247.875 7.125L247.875 7.125L222.75 41.25L222.75 41.25L266.625 67.125L266.625 67.125L291.375 22.125L291.375 22.125L247.875 7.125z" stroke="#FFFFFF" stroke-width="1" fill="none" stroke-opacity="0" />
    <path id=""  transform="matrix(1 0 0 -1 0 390)"  d="M11.625 125.25L11.625 125.25L11.625 125.25L54 142.125L54 142.125L222.75 41.25L222.75 41.25L127.875 2.625L127.875 2.625L11.625 125.25z" stroke="#FFFFFF" stroke-width="1" fill="none" stroke-opacity="0" />
    <path id=""  transform="matrix(1 0 0 -1 0 390)"  d="M366.4695 84.078766L366.4695 84.078766L366.4695 84.078766L360.98325 90.38776L360.98325 90.38776L359.6115 71.73526L359.6115 71.73526L367.01776 66.5235L367.01776 66.5235L368.93774 67.89526L368.93774 67.89526L366.4695 54.72827L366.4695 54.72827L356.046 50.61374L356.046 50.61374L353.8515 51.711L353.8515 51.711L302.28226 29.218506L302.28226 29.218506L302.28226 29.218506L302.28226 29.218506L302.28226 26.474976L302.28226 26.474976L290.487 21.812256L290.487 21.812256L250.16476 51.711L250.16476 51.711L163.2105 16.875L163.2105 16.875L136.32901 42.933746L136.32901 42.933746L42.791325 124.95001L42.791325 124.95001L25.235924 202.578L25.235924 202.578L0 225.894L0 225.894L0 225.894C 8.320499 249.20926 25.5651 297.21225 27.978899 302.6985L27.978899 302.6985L27.978899 302.6985C 30.392776 308.18475 34.836525 327.66022 36.756676 336.71228L36.756676 336.71228L112.464 367.98285C 167.05049 375.57187 276.55273 390.75 277.86902 390.75L277.86902 390.75L277.86902 390.75C 279.18597 390.75 330.9015 357.285 356.59427 340.5525L356.59427 340.5525L387.3165 314.21924C 398.10526 287.06326 419.68423 232.36725 419.68423 230.83124L419.68423 230.83124L419.68423 230.83124C 419.68423 229.29526 403.4085 221.0475 395.271 217.116L395.271 217.116L384.02478 168.8385L384.02478 168.8385L381.55576 136.19626L381.55576 136.19626L381.55576 136.19626L381.55576 136.19626L383.47574 136.19626L383.47574 136.19626L383.75024 135.92252L383.75024 135.92252L389.51102 149.08875L389.51102 149.08875L395.271 103.82849L395.271 103.82849L369.21225 87.919495L369.21225 87.919495L368.93774 85.175995L368.93774 85.175995L367.8405 84.078766L367.8405 84.078766L367.8405 84.078766L367.8405 84.078766L366.4695 84.078766z" stroke="#FFFFFF" stroke-width="1" fill="#C4C4C4" fill-rule="nonzero" />
    <path id=""  transform="matrix(1 0 0 -1 0 390)"  d="M-121.5165 398.7048L-121.5165 398.7048L-121.5165 398.7048L573.56775 398.7048L573.56775 398.7048L573.56775 -35.79193L573.56775 -35.79193L-121.5165 -35.79193z" stroke="#FFFFFF" stroke-width="0.75" fill="none" stroke-opacity="0" />
    <path id=""  transform="matrix(1 0 0 -1 0 390)"  d="M356.31973 172.12952L356.31973 172.12952L356.31973 172.12952L355.2225 172.404L355.2225 172.404L354.67426 159.5115L354.67426 159.5115L354.67426 159.5115L354.67426 159.5115L355.497 159.5115L355.497 159.5115L356.31973 172.12952z" stroke="#FFFFFF" stroke-width="1" fill="#307FE2" fill-rule="nonzero" />
    <path id=""  transform="matrix(1 0 0 -1 0 390)"  d="M363.45148 168.83775L363.45148 168.83775L363.45148 168.83775L360.1605 170.2095L360.1605 170.2095L359.6115 161.15776L359.6115 161.15776L363.17773 162.255L363.17773 162.255L363.45148 168.83775z" stroke="#FFFFFF" stroke-width="1" fill="#307FE2" fill-rule="nonzero" />
    <path id=""  transform="matrix(1 0 0 -1 0 390)"  d="M370.85773 165.54675L370.85773 165.54675L370.85773 165.54675L367.566 166.91776L367.566 166.91776L367.566 166.91776L367.566 166.91776L367.566 163.626L367.566 163.626L370.85773 164.72327L370.85773 164.72327L370.85773 164.72327L370.85773 164.72327L370.85773 165.54675z" stroke="#FFFFFF" stroke-width="1" fill="#307FE2" fill-rule="nonzero" />
    <path id=""  transform="matrix(1 0 0 -1 0 390)"  d="M369.48676 158.41425L369.48676 158.41425L369.48676 158.41425L367.01776 157.5915L367.01776 157.5915L366.4695 147.99075L366.4695 147.99075L368.66324 146.8935L368.66324 146.8935L369.48676 158.41425z" stroke="#FFFFFF" stroke-width="1" fill="#307FE2" fill-rule="nonzero" />
    <path id=""  transform="matrix(1 0 0 -1 0 390)"  d="M361.806 155.94601L361.806 155.94601L361.806 155.94601L359.337 155.12325L359.337 155.12325L359.337 155.12325L359.337 155.12325L359.337 151.2825L359.337 151.2825L361.5315 150.45975L361.5315 150.45975L361.806 155.94601z" stroke="#FFFFFF" stroke-width="1" fill="#307FE2" fill-rule="nonzero" />
    <path id=""  transform="matrix(1 0 0 -1 0 390)"  d="M355.77148 93.40573L355.77148 93.40573L355.77148 93.40573L353.028 92.034L353.028 92.034L352.75424 85.99948L352.75424 85.99948L353.028 85.724976L353.028 85.724976L352.75424 75.57599L352.75424 75.57599L354.67426 74.47876L354.67426 74.47876L355.77148 93.40573z" stroke="#FFFFFF" stroke-width="1" fill="#3284E6" fill-rule="nonzero" />
	</g>
</g>
</svg>