<?xml version="1.0" standalone="no"?>
<!DOCTYPE svg PUBLIC "-//W3C//DTD SVG 1.0//EN" "http://www.w3.org/TR/2001/REC-SVG-20010904/DTD/svg10.dtd">
<svg xmlns="http://www.w3.org/2000/svg" xmlns:xlink="http://www.w3.org/1999/xlink" id="body_1" width="982" height="782">

<g transform="matrix(1 0 0 1 0 0)">
	<g>
        <path d="M411 355.499C 411 261.33444 497.40903 184.999 604 184.999C 710.59094 184.999 797 261.33444 797 355.499C 797 449.66354 710.59094 525.999 604 525.999C 497.40903 525.999 411 449.66354 411 355.499" stroke="none" fill="#3FA3FF" fill-rule="nonzero" />
	</g>
	<g>
        <path d="M-46 426.499C -46 332.33444 40.409035 255.999 147 255.999C 253.59097 255.999 340 332.33444 340 426.499C 340 520.6636 253.59097 596.999 147 596.999C 40.409035 596.999 -46 520.6636 -46 426.499" stroke="none" fill="#3FA3FF" fill-rule="nonzero" />
	</g>
	<g>
        <path d="M511.5 668.5L478 623L536.5 588.5L569.5 648.5L511.5 668.5z" stroke="none" fill="none" />
	</g>
	<g>
        <path d="M196.5 511L253 488.5L478 623L351.5 674.5L196.5 511z" stroke="none" fill="none" />
	</g>
    <path d="M669.626 565.895L662.311 557.483L660.482 582.353L670.357 589.302L672.917 587.473L669.626 605.029L655.728 610.515L652.802 609.052L584.043 639.042L584.043 642.7L568.316 648.917L514.553 609.052L398.614 655.5L362.772 620.755L238.055 511.4L214.648 407.896L181 376.808C 192.094 345.721 215.087 281.717 218.305 274.402C 221.524 267.087 227.449 241.12 230.009 229.05L230.009 229.05L330.952 187.356C 403.734 177.237 549.737 157 551.492 157C 553.248 157 622.202 201.62 656.459 223.93L656.459 223.93L697.422 259.041C 711.807 295.249 740.579 368.177 740.579 370.225C 740.579 372.273 718.878 383.27 708.028 388.512L708.028 388.512L693.033 452.882L689.741 496.405L692.301 496.405L692.667 496.77L700.348 479.215L708.028 539.562L673.283 560.774L672.917 564.432L671.454 565.895L669.626 565.895z" stroke="none" fill="#C4C4C4" fill-rule="nonzero" />
	<g>
        <path d="M18.9783 146.394L945.75726 146.394L945.75726 725.72296L18.9783 725.72296z" stroke="none" fill="none" />
        <path d="M656.093 448.494L654.63 448.128L653.899 465.318L654.996 465.318L656.093 448.494z" stroke="none" fill="#307FE2" fill-rule="nonzero" />
        <path d="M665.602 452.883L661.214 451.054L660.482 463.123L665.237 461.66L665.602 452.883z" stroke="none" fill="#307FE2" fill-rule="nonzero" />
        <path d="M675.477 457.271L671.088 455.443L671.088 459.832L675.477 458.369L675.477 457.271z" stroke="none" fill="#307FE2" fill-rule="nonzero" />
        <path d="M673.649 466.781L670.357 467.878L669.626 480.679L672.551 482.142L673.649 466.781z" stroke="none" fill="#307FE2" fill-rule="nonzero" />
        <path d="M663.408 470.072L660.116 471.169L660.116 476.29L663.042 477.387L663.408 470.072z" stroke="none" fill="#307FE2" fill-rule="nonzero" />
        <path d="M655.362 553.459L651.704 555.288L651.339 563.334L651.704 563.7L651.339 577.232L653.899 578.695L655.362 553.459z" stroke="none" fill="#3284E6" fill-rule="nonzero" />
	</g>
    <path d="M741 293.5C 741 316.0056 733.0431 335.21536 717.1292 351.1292C 701.2154 367.0431 682.0056 375 659.5 375C 636.9944 375 617.78467 367.0431 601.8708 351.1292C 585.9569 335.21536 578 316.0056 578 293.5C 578 270.9944 585.9569 251.78467 601.8708 235.8708C 617.78467 219.95694 636.9944 212.00002 659.5 212C 682.0056 212.00002 701.2154 219.95694 717.1292 235.8708C 733.0431 251.78467 741 270.9944 741 293.5C 741 294.4484 740.98346 295.39648 740.9504 296.3443" stroke="none" fill="#93DA49" fill-rule="nonzero" />
	<g>
        <path d="M685.085 267.913L650.968 302.022L637.707 288.764L627.279 299.192L650.969 322.878L695.512 278.341L685.085 267.913z" stroke="none" fill="#FFFFFF" fill-rule="nonzero" />
	</g>
</g>
</svg>