<svg width="18" height="18" viewBox="0 0 18 18" fill="none" xmlns="http://www.w3.org/2000/svg">
<g clip-path="url(#clip0_304_6027)">
<path d="M9.195 9.66733C11.7157 9.66733 13.7591 7.60532 13.7591 5.06168C13.7591 2.51803 11.7157 0.456055 9.195 0.456055C6.6743 0.456055 4.63092 2.51807 4.63092 5.06171C4.63401 7.60403 6.67562 9.66421 9.195 9.66733ZM9.195 2.58174C10.5523 2.58174 11.6526 3.69204 11.6526 5.06171C11.6526 6.43138 10.5523 7.54168 9.195 7.54168C7.83768 7.54168 6.73739 6.43138 6.73739 5.06171C6.73739 3.69204 7.83772 2.58174 9.195 2.58174Z" fill="white"/>
<path d="M13.6657 11.8499C14.1617 11.5202 14.4606 10.9613 14.4613 10.3619C14.4682 9.86454 14.19 9.40778 13.7472 9.18927C13.2922 8.95992 12.7475 9.01157 12.3428 9.32249C10.4673 10.7023 7.92344 10.7023 6.04789 9.32249C5.64258 9.0132 5.09887 8.96162 4.64354 9.18927C4.20088 9.40775 3.92259 9.864 3.92874 10.3612C3.92979 10.9605 4.22856 11.5192 4.72431 11.8492C5.36034 12.276 6.05299 12.61 6.78168 12.8412C6.90527 12.8799 7.03281 12.9158 7.16437 12.9489L5.04243 15.0427C4.48578 15.5877 4.47232 16.4848 5.01241 17.0466C5.5525 17.6083 6.44154 17.6219 6.99822 17.0769C7.00981 17.0655 7.02119 17.054 7.03238 17.0422L9.19508 14.7833L11.362 17.0465C11.9016 17.6086 12.7907 17.6229 13.3478 17.0784C13.9048 16.5338 13.919 15.6367 13.3794 15.0745C13.3681 15.0628 13.3566 15.0512 13.3449 15.0398L11.2264 12.9482C11.358 12.9142 11.486 12.878 11.6105 12.8398C12.3384 12.6095 13.0304 12.2762 13.6657 11.8499Z" fill="white"/>
</g>
<defs>
<clipPath id="clip0_304_6027">
<rect width="16.8678" height="17.0214" fill="white" transform="translate(0.761078 0.456055)"/>
</clipPath>
</defs>
</svg>
