<?xml version="1.0" standalone="no"?>
<!DOCTYPE svg PUBLIC "-//W3C//DTD SVG 1.0//EN" "http://www.w3.org/TR/2001/REC-SVG-20010904/DTD/svg10.dtd">
<svg xmlns="http://www.w3.org/2000/svg" xmlns:xlink="http://www.w3.org/1999/xlink" id="body_8" width="339" height="192">

<defs>
    <clipPath  id="1">

    <path id=""  clip-rule="evenodd" transform="matrix(1 0 0 1 0 0)"  d="M0 144L0 0L0 0L254.25 0L254.25 0L254.25 144L254.25 144L0 144z" />    </clipPath>
</defs>

<g transform="matrix(1.3333 0 0 1.3333 0 0)">
	<g clip-path="url(#1)" >
    <path id=""  transform="matrix(1 0 0 -1 0 144)"  d="M0 144L0 144L0 144L254.06474 144L254.06474 144L254.06474 0.5482483L254.06474 0.5482483L0 0.5482483z" stroke="#FFFFFF" stroke-width="0.75" fill="none" stroke-opacity="0" />
    <path id=""  transform="matrix(1 0 0 -1 0 144)"  d="M199.5 33L199.5 33L199.5 33L254.25 33L254.25 33L254.25 0.75L254.25 0.75L199.5 0.75z" stroke="#FFFFFF" stroke-width="0.75" fill="#000000" fill-rule="nonzero" />
    <path id=""  transform="matrix(1 0 0 -1 0 144)"  d="M237.35175 13.242004C 237.90074 13.242004 238.34625 13.386002 238.68826 13.673996L238.68826 13.673996L238.68826 13.673996C 239.03024 13.971008 239.20125 14.362488 239.20125 14.848511L239.20125 14.848511L239.20125 14.848511C 239.20125 15.343491 239.03024 15.735001 238.68826 16.022995L238.68826 16.022995L238.68826 16.022995C 238.34625 16.311005 237.88727 16.455002 237.31125 16.455002L237.31125 16.455002L237.31125 16.455002C 236.74425 16.455002 236.28073 16.301994 235.92075 15.996002L235.92075 15.996002L235.92075 15.996002C 235.56973 15.690002 235.39426 15.303009 235.39426 14.834991L235.39426 14.834991L235.39426 14.834991C 235.39426 14.376007 235.56525 13.9935 235.90726 13.6875L235.90726 13.6875L235.90726 13.6875C 236.25824 13.390503 236.73976 13.242004 237.35175 13.242004zM237.64874 17.832C 238.26974 17.832 238.82776 17.710495 239.32274 17.467499L239.32274 17.467499L239.32274 17.467499C 239.81775 17.233498 240.20476 16.895996 240.48373 16.455002L240.48373 16.455002L240.48373 16.455002C 240.76276 16.014008 240.90225 15.505493 240.90225 14.929504L240.90225 14.929504L240.90225 14.929504C 240.90225 14.317505 240.74924 13.777496 240.44325 13.309509L240.44325 13.309509L240.44325 13.309509C 240.13727 12.850494 239.72327 12.494995 239.20125 12.243011L239.20125 12.243011L239.20125 12.243011C 238.67926 11.990997 238.09427 11.8650055 237.44626 11.8650055L237.44626 11.8650055L237.44626 11.8650055C 236.15025 11.8650055 235.14226 12.270004 234.42224 13.080002L234.42224 13.080002L234.42224 13.080002C 233.71124 13.889999 233.35574 15.050995 233.35574 16.563004L233.35574 16.563004L233.35574 16.563004C 233.35574 17.625 233.54924 18.529495 233.93625 19.276497L233.93625 19.276497L233.93625 19.276497C 234.32324 20.032501 234.86325 20.604004 235.55626 20.991005L235.55626 20.991005L235.55626 20.991005C 236.25824 21.387009 237.06825 21.585 237.98625 21.585L237.98625 21.585L237.98625 21.585C 238.47226 21.585 238.92676 21.53099 239.34975 21.422997L239.34975 21.422997L239.34975 21.422997C 239.78177 21.324005 240.15524 21.175491 240.47026 20.9775L240.47026 20.9775L239.82225 19.654495C 239.35425 19.960495 238.75575 20.113495 238.02673 20.113495L238.02673 20.113495L238.02673 20.113495C 237.11777 20.113495 236.40677 19.834503 235.89374 19.276497L235.89374 19.276497L235.89374 19.276497C 235.38075 18.71849 235.12424 17.913002 235.12424 16.86L235.12424 16.86L235.12424 16.86L235.12424 16.86L235.12424 16.846504L235.12424 16.846504L235.12424 16.846504C 235.40326 17.170502 235.75876 17.413498 236.19073 17.5755L236.19073 17.5755L236.19073 17.5755C 236.62276 17.746506 237.10873 17.832 237.64874 17.832zM229.52101 17.548492C 230.39398 17.440498 231.06 17.143501 231.51898 16.657501L231.51898 16.657501L231.51898 16.657501C 231.978 16.171494 232.20749 15.563995 232.20749 14.834991L232.20749 14.834991L232.20749 14.834991C 232.20749 14.286011 232.06801 13.786499 231.789 13.336502L231.789 13.336502L231.789 13.336502C 231.51 12.886505 231.087 12.526489 230.51999 12.2565L230.51999 12.2565L230.51999 12.2565C 229.962 11.995499 229.27802 11.8650055 228.46799 11.8650055L228.46799 11.8650055L228.46799 11.8650055C 227.793 11.8650055 227.1405 11.959503 226.5105 12.148499L226.5105 12.148499L226.5105 12.148499C 225.8895 12.346497 225.35849 12.616501 224.91751 12.958496L224.91751 12.958496L225.67351 14.321991C 226.0155 14.033997 226.4295 13.804504 226.9155 13.633499L226.9155 13.633499L226.9155 13.633499C 227.41049 13.471497 227.919 13.390503 228.44101 13.390503L228.44101 13.390503L228.44101 13.390503C 229.06198 13.390503 229.548 13.51651 229.89902 13.768494L229.89902 13.768494L229.89902 13.768494C 230.259 14.029495 230.43901 14.380493 230.43901 14.821503L230.43901 14.821503L230.43901 14.821503C 230.43901 15.262512 230.26799 15.604492 229.926 15.847504L229.926 15.847504L229.926 15.847504C 229.59299 16.099503 229.08 16.225502 228.387 16.225502L228.387 16.225502L228.387 16.225502L228.387 16.225502L227.52301 16.225502L227.52301 16.225502L227.52301 16.225502L227.52301 16.225502L227.52301 17.426994L227.52301 17.426994L229.66951 19.9785L229.66951 19.9785L229.66951 19.9785L229.66951 19.9785L225.37651 19.9785L225.37651 19.9785L225.37651 19.9785L225.37651 19.9785L225.37651 21.450005L225.37651 21.450005L225.37651 21.450005L225.37651 21.450005L231.81601 21.450005L231.81601 21.450005L231.81601 21.450005L231.81601 21.450005L231.81601 20.275497L231.81601 20.275497L229.52101 17.548492zM223.25551 11.905487C 222.9495 11.905487 222.6885 12.009003 222.4725 12.216003L222.4725 12.216003L222.4725 12.216003C 222.2565 12.432007 222.1485 12.701996 222.1485 13.026001L222.1485 13.026001L222.1485 13.026001C 222.1485 13.358994 222.252 13.628998 222.459 13.835999L222.459 13.835999L222.459 13.835999C 222.67499 14.042999 222.94049 14.1465 223.25551 14.1465L223.25551 14.1465L223.25551 14.1465C 223.5705 14.1465 223.83148 14.042999 224.03848 13.835999L224.03848 13.835999L224.03848 13.835999C 224.25452 13.628998 224.36249 13.358994 224.36249 13.026001L224.36249 13.026001L224.36249 13.026001C 224.36249 12.701996 224.25452 12.432007 224.03848 12.216003L224.03848 12.216003L224.03848 12.216003C 223.8225 12.009003 223.5615 11.905487 223.25551 11.905487zM223.25551 17.048996C 222.9495 17.048996 222.6885 17.152496 222.4725 17.359497L222.4725 17.359497L222.4725 17.359497C 222.2565 17.5755 222.1485 17.845505 222.1485 18.169495L222.1485 18.169495L222.1485 18.169495C 222.1485 18.502502 222.252 18.7725 222.459 18.9795L222.459 18.9795L222.459 18.9795C 222.67499 19.1865 222.94049 19.29 223.25551 19.29L223.25551 19.29L223.25551 19.29C 223.5705 19.29 223.83148 19.1865 224.03848 18.9795L224.03848 18.9795L224.03848 18.9795C 224.25452 18.7725 224.36249 18.502502 224.36249 18.169495L224.36249 18.169495L224.36249 18.169495C 224.36249 17.845505 224.25452 17.5755 224.03848 17.359497L224.03848 17.359497L224.03848 17.359497C 223.8225 17.152496 223.5615 17.048996 223.25551 17.048996zM217.0605 13.390503C 217.7355 13.390503 218.26651 13.669495 218.6535 14.227509L218.6535 14.227509L218.6535 14.227509C 219.0495 14.785507 219.2475 15.618011 219.2475 16.725006L219.2475 16.725006L219.2475 16.725006C 219.2475 17.832 219.0495 18.664505 218.6535 19.222504L218.6535 19.222504L218.6535 19.222504C 218.26651 19.780495 217.7355 20.059502 217.0605 20.059502L217.0605 20.059502L217.0605 20.059502C 216.3945 20.059502 215.8635 19.780495 215.4675 19.222504L215.4675 19.222504L215.4675 19.222504C 215.08049 18.664505 214.887 17.832 214.887 16.725006L214.887 16.725006L214.887 16.725006C 214.887 15.618011 215.08049 14.785507 215.4675 14.227509L215.4675 14.227509L215.4675 14.227509C 215.8635 13.669495 216.3945 13.390503 217.0605 13.390503zM217.0605 11.8650055C 216.3045 11.8650055 215.62952 12.054001 215.03549 12.432007L215.03549 12.432007L215.03549 12.432007C 214.4415 12.819 213.97351 13.376999 213.6315 14.106003L213.6315 14.106003L213.6315 14.106003C 213.28949 14.844009 213.1185 15.716995 213.1185 16.725006L213.1185 16.725006L213.1185 16.725006C 213.1185 17.733002 213.28949 18.601501 213.6315 19.330505L213.6315 19.330505L213.6315 19.330505C 213.97351 20.068497 214.4415 20.626495 215.03549 21.004501L215.03549 21.004501L215.03549 21.004501C 215.62952 21.391502 216.3045 21.585 217.0605 21.585L217.0605 21.585L217.0605 21.585C 217.8165 21.585 218.49149 21.391502 219.08551 21.004501L219.08551 21.004501L219.08551 21.004501C 219.6885 20.626495 220.16101 20.068497 220.50299 19.330505L220.50299 19.330505L220.50299 19.330505C 220.845 18.601501 221.01599 17.733002 221.01599 16.725006L221.01599 16.725006L221.01599 16.725006C 221.01599 15.716995 220.845 14.844009 220.50299 14.106003L220.50299 14.106003L220.50299 14.106003C 220.16101 13.376999 219.6885 12.819 219.08551 12.432007L219.08551 12.432007L219.08551 12.432007C 218.49149 12.054001 217.8165 11.8650055 217.0605 11.8650055z" stroke="#FFFFFF" stroke-width="1" fill="#FFFFFF" fill-rule="nonzero" />
	</g>
</g>
</svg>